<svg width="62" height="62" viewBox="0 0 62 62" fill="none" xmlns="http://www.w3.org/2000/svg">
<rect x="2.92023" y="0.324468" width="58.4043" height="58.4043" fill="#F8F7F6" stroke="#2B2B2B" stroke-width="0.648936"/>
<rect x="0.324491" y="2.27112" width="58.4043" height="58.4043" fill="#D7D9FF" stroke="#2B2B2B" stroke-width="0.648936"/>
<path d="M31.0001 48.8085C21.8235 48.8085 14.358 41.2636 14.358 31.9894C14.358 22.7152 21.8235 15.1702 31.0001 15.1702C40.1766 15.1702 47.6422 22.7152 47.6422 31.9894C47.6422 41.2636 40.1766 48.8085 31.0001 48.8085ZM31.0001 16.7085C22.6628 16.7085 15.8801 23.5634 15.8801 31.9894C15.8801 40.4154 22.6628 47.2702 31.0001 47.2702C39.3374 47.2702 46.1201 40.4154 46.1201 31.9894C46.1201 23.5634 39.3374 16.7085 31.0001 16.7085ZM31.0001 44.7705C24.0264 44.7705 18.353 39.0367 18.353 31.9894C18.353 24.9415 24.0264 19.2077 31.0001 19.2077C37.9737 19.2077 43.6467 24.9415 43.6467 31.9894C43.6472 39.0372 37.9737 44.7705 31.0001 44.7705ZM31.0001 20.746C24.8657 20.746 19.8756 25.7897 19.8756 31.9888C19.8756 38.1885 24.8662 43.2317 31.0001 43.2317C37.1345 43.2317 42.1246 38.188 42.1246 31.9888C42.1251 25.7897 37.1345 20.746 31.0001 20.746Z" fill="#4642FF"/>
<path d="M31 34.866C29.6075 34.866 28.4745 33.721 28.4745 32.3136C28.4745 30.9063 29.6075 29.7613 31 29.7613C32.3926 29.7613 33.5255 30.9063 33.5255 32.3136C33.5261 33.7205 32.3926 34.866 31 34.866ZM31 31.2991C30.4467 31.2991 29.9966 31.7539 29.9966 32.3131C29.9966 32.8723 30.4467 33.3272 31 33.3272C31.5533 33.3272 32.0034 32.8723 32.0034 32.3131C32.0039 31.7539 31.5539 31.2991 31 31.2991Z" fill="#4642FF"/>
<path d="M31 31.1373C30.5799 31.1373 30.2392 30.793 30.2392 30.3684V24.2079C30.2392 23.7833 30.5799 23.4385 31 23.4385C31.4207 23.4385 31.7608 23.7828 31.7608 24.2079V30.3684C31.7613 30.793 31.4207 31.1373 31 31.1373Z" fill="#4642FF"/>
<path d="M27.5109 37.3381C27.3163 37.3381 27.1212 37.2629 26.9731 37.1127C26.6758 36.8122 26.6758 36.3256 26.9731 36.0251L29.593 33.3773C29.8898 33.0768 30.3724 33.0768 30.6692 33.3773C30.9665 33.6777 30.9665 34.1644 30.6692 34.4649L28.0492 37.1127C27.9006 37.2629 27.706 37.3381 27.5109 37.3381Z" fill="#4642FF"/>
</svg>
