<svg width="63" height="63" viewBox="0 0 63 63" fill="none" xmlns="http://www.w3.org/2000/svg">
<rect x="2.9739" y="0.330435" width="59.4783" height="59.4783" fill="#F8F7F6" stroke="#2B2B2B" stroke-width="0.66087"/>
<rect x="0.33042" y="2.31304" width="59.4783" height="59.4783" fill="#D7FDFF" stroke="#2B2B2B" stroke-width="0.66087"/>
<path d="M42.5734 31.0678C42.5734 37.7749 37.1656 43.2034 30.5054 43.2034C23.8453 43.2034 18.4375 37.7749 18.4375 31.0678C18.4375 24.3606 23.8453 18.9322 30.5054 18.9322C37.1656 18.9322 42.5734 24.3606 42.5734 31.0678Z" stroke="#00CFC3" stroke-width="1.98261"/>
<path d="M35.9157 31.0678C35.9157 34.5755 35.2203 37.7023 34.1411 39.9154C33.0294 42.195 31.6824 43.2034 30.5055 43.2034C29.3285 43.2034 27.9815 42.195 26.8699 39.9154C25.7906 37.7023 25.0952 34.5755 25.0952 31.0678C25.0952 27.56 25.7906 24.4332 26.8699 22.2202C27.9815 19.9406 29.3285 18.9322 30.5055 18.9322C31.6824 18.9322 33.0294 19.9406 34.1411 22.2202C35.2203 24.4332 35.9157 27.56 35.9157 31.0678Z" stroke="#00CFC3" stroke-width="1.98261"/>
<path d="M20.519 23.4163C24.0585 26.5361 35.9411 26.9261 40.4919 24.0013" stroke="#00CFC3" stroke-width="1.98261"/>
<path d="M40.4919 38.0174C36.9524 35.5215 25.0698 35.2096 20.519 37.5494" stroke="#00CFC3" stroke-width="1.98261"/>
<path d="M13.3492 31.0677H46.6375" stroke="#00CFC3" stroke-width="1.98261"/>
<path d="M30.2494 18.1983V13.8227" stroke="#00CFC3" stroke-width="1.98261"/>
<path d="M20.5243 23.6089L17.4462 20.5148" stroke="#00CFC3" stroke-width="1.98261"/>
<path d="M40.4919 38.0176L43.57 41.1116" stroke="#00CFC3" stroke-width="1.98261"/>
<path d="M40.4919 23.6089L43.57 20.5148" stroke="#00CFC3" stroke-width="1.98261"/>
<path d="M20.5243 38.0176L17.4462 41.1116" stroke="#00CFC3" stroke-width="1.98261"/>
<path d="M30.2494 48.5702V44.1946" stroke="#00CFC3" stroke-width="1.98261"/>
<path d="M32.554 13.5512C32.554 14.8306 31.5222 15.8677 30.2494 15.8677C28.9766 15.8677 27.9449 14.8306 27.9449 13.5512C27.9449 12.2718 28.9766 11.2347 30.2494 11.2347C31.5222 11.2347 32.554 12.2718 32.554 13.5512Z" fill="#00CFC3"/>
<path d="M50.7344 31.0678C50.7344 32.3472 49.7027 33.3843 48.4299 33.3843C47.1571 33.3843 46.1253 32.3472 46.1253 31.0678C46.1253 29.7884 47.1571 28.7513 48.4299 28.7513C49.7027 28.7513 50.7344 29.7884 50.7344 31.0678Z" fill="#00CFC3"/>
<path d="M13.8613 31.0678C13.8613 32.3472 12.8295 33.3843 11.5568 33.3843C10.284 33.3843 9.25218 32.3472 9.25218 31.0678C9.25218 29.7884 10.284 28.7513 11.5568 28.7513C12.8295 28.7513 13.8613 29.7884 13.8613 31.0678Z" fill="#00CFC3"/>
<path d="M18.4705 41.8782C18.4705 43.1576 17.4387 44.1947 16.1659 44.1947C14.8932 44.1947 13.8614 43.1576 13.8614 41.8782C13.8614 40.5988 14.8932 39.5617 16.1659 39.5617C17.4387 39.5617 18.4705 40.5988 18.4705 41.8782Z" fill="#00CFC3"/>
<path d="M18.9826 19.7427C18.9826 21.022 17.9508 22.0592 16.678 22.0592C15.4052 22.0592 14.3734 21.022 14.3734 19.7427C14.3734 18.4633 15.4052 17.4261 16.678 17.4261C17.9508 17.4261 18.9826 18.4633 18.9826 19.7427Z" fill="#00CFC3"/>
<path d="M46.6374 19.7427C46.6374 21.022 45.6057 22.0592 44.3329 22.0592C43.0601 22.0592 42.0283 21.022 42.0283 19.7427C42.0283 18.4633 43.0601 17.4261 44.3329 17.4261C45.6057 17.4261 46.6374 18.4633 46.6374 19.7427Z" fill="#00CFC3"/>
<path d="M46.6374 41.8782C46.6374 43.1576 45.6057 44.1947 44.3329 44.1947C43.0601 44.1947 42.0283 43.1576 42.0283 41.8782C42.0283 40.5988 43.0601 39.5617 44.3329 39.5617C45.6057 39.5617 46.6374 40.5988 46.6374 41.8782Z" fill="#00CFC3"/>
<path d="M32.554 48.5704C32.554 49.8498 31.5222 50.8869 30.2494 50.8869C28.9766 50.8869 27.9449 49.8498 27.9449 48.5704C27.9449 47.291 28.9766 46.2539 30.2494 46.2539C31.5222 46.2539 32.554 47.291 32.554 48.5704Z" fill="#00CFC3"/>
</svg>
