<svg width="63" height="62" viewBox="0 0 63 62" fill="none" xmlns="http://www.w3.org/2000/svg">
<rect x="2.9397" y="0.32663" width="58.7935" height="58.7935" fill="#F8F7F6" stroke="#2B2B2B" stroke-width="0.653261"/>
<rect x="0.326661" y="2.28641" width="58.7935" height="58.7935" fill="#FFEDAD" stroke="#2B2B2B" stroke-width="0.653261"/>
<path d="M36.0037 48.8085H26.6532C26.2571 48.8085 25.9345 48.4825 25.9345 48.0822V44.6901C25.812 44.6365 25.6936 44.5828 25.5752 44.5251L23.1906 46.935C22.9089 47.2197 22.4556 47.2197 22.1739 46.935L15.5632 40.254C15.4284 40.1178 15.3509 39.9321 15.3509 39.7382C15.3509 39.5442 15.4284 39.3585 15.5632 39.2223L18.2377 36.5194C18.2295 36.4946 18.2213 36.474 18.2132 36.4492H14.424C14.0279 36.4492 13.7053 36.1232 13.7053 35.7229V26.2729C13.7053 25.8726 14.0279 25.5466 14.424 25.5466H18.303L15.5591 22.7735C15.2774 22.4888 15.2774 22.0307 15.5591 21.746L22.1739 15.065C22.3086 14.9288 22.4924 14.8504 22.6843 14.8504C22.8762 14.8504 23.0559 14.9288 23.1906 15.065L25.9345 17.8381V13.9178C25.9345 13.5175 26.2571 13.1915 26.6532 13.1915H36.0037C36.3998 13.1915 36.7223 13.5175 36.7223 13.9178V17.7432C36.7468 17.7514 36.7672 17.7597 36.7917 17.7679L39.4662 15.065C39.601 14.9288 39.7847 14.8504 39.9766 14.8504C40.1685 14.8504 40.3482 14.9288 40.483 15.065L47.0937 21.746C47.3754 22.0307 47.3754 22.4888 47.0937 22.7735L44.7091 25.1835C44.7662 25.3032 44.8193 25.427 44.8724 25.5466H48.2288C48.6249 25.5466 48.9474 25.8726 48.9474 26.2729V35.7229C48.9474 36.1232 48.6249 36.4492 48.2288 36.4492H45.1664C45.0929 36.6473 45.0153 36.8413 44.9336 37.0393L47.0937 39.2223C47.3754 39.5071 47.3754 39.9651 47.0937 40.2499L40.483 46.9309C40.2012 47.2156 39.748 47.2156 39.4662 46.9309L37.3062 44.7479C37.1143 44.8304 36.9183 44.9088 36.7223 44.9831V48.0822C36.7223 48.4825 36.3998 48.8085 36.0037 48.8085ZM27.3718 47.3559H35.285V44.4714C35.285 44.1578 35.4851 43.8813 35.7791 43.7823C36.2487 43.6254 36.7142 43.4356 37.1633 43.2252C37.4369 43.0972 37.7635 43.155 37.9759 43.3696L39.9766 45.3916L45.5706 39.7382L43.5699 37.7161C43.3575 37.5015 43.3004 37.1714 43.4269 36.8949C43.6352 36.441 43.823 35.9705 43.9782 35.496C44.0762 35.1989 44.3497 34.9966 44.6601 34.9966H47.5142V26.9992H44.3987C44.1048 26.9992 43.8393 26.8176 43.7291 26.5412C43.5739 26.145 43.3943 25.7488 43.2024 25.3692C43.0595 25.0886 43.1125 24.7461 43.333 24.5232L45.5706 22.2618L39.9766 16.6083L37.4777 19.1338C37.2695 19.3443 36.9592 19.4062 36.6897 19.2907C36.3916 19.1669 36.0853 19.0472 35.7791 18.944C35.4851 18.845 35.285 18.5685 35.285 18.2549V14.6441H27.3718V18.519C27.3718 18.8161 27.1921 19.0843 26.9186 19.1957C26.6899 19.2865 26.4531 19.3897 26.2162 19.5011C25.9427 19.629 25.616 19.5713 25.4037 19.3567L22.6843 16.6083L17.0903 22.2618L19.8097 25.0102C20.022 25.2248 20.0792 25.5549 19.9526 25.8314C19.8424 26.0707 19.7403 26.3101 19.6505 26.5412C19.5402 26.8176 19.2748 26.9992 18.9808 26.9992H15.1426V34.9966H18.7154C19.0257 34.9966 19.2993 35.1989 19.3973 35.496C19.4994 35.8096 19.6137 36.1191 19.7403 36.4162C19.8546 36.6886 19.7934 37.0022 19.5851 37.2127L17.0862 39.7382L22.6802 45.3916L24.9178 43.1303C25.1383 42.9074 25.4772 42.8538 25.7548 42.9982C26.1305 43.1963 26.5225 43.3737 26.9145 43.5305C27.1881 43.642 27.3677 43.9102 27.3677 44.2073V47.3559H27.3718Z" fill="#FF5C00"/>
<path d="M31.6877 42.2679C25.7385 42.2679 20.8999 37.3778 20.8999 31.3653C20.8999 25.3528 25.7385 20.4627 31.6877 20.4627C37.6369 20.4627 42.4755 25.3528 42.4755 31.3653C42.4755 37.3778 37.6369 42.2679 31.6877 42.2679ZM31.6877 21.9153C26.5306 21.9153 22.3372 26.1533 22.3372 31.3653C22.3372 36.5772 26.5306 40.8153 31.6877 40.8153C36.8448 40.8153 41.0382 36.5772 41.0382 31.3653C41.0382 26.1533 36.8448 21.9153 31.6877 21.9153Z" fill="#FF5C00"/>
<path d="M31.641 36.9362H31.6291C29.5517 36.93 27.6133 35.4485 27.0096 34.3784C26.3851 33.2712 26.9208 31.3228 28.6402 28.4218C29.8387 26.3991 31.1675 24.6795 31.2237 24.6053C31.3214 24.4785 31.4693 24.4043 31.6291 24.4043C31.786 24.4043 31.9339 24.4785 32.0316 24.6053C32.0878 24.6764 33.4284 26.396 34.6388 28.4187C36.3789 31.3197 36.9205 33.2681 36.299 34.3784C35.6983 35.4516 33.7451 36.9362 31.638 36.9362H31.641ZM31.6291 25.8331C31.1438 26.4981 30.2945 27.7011 29.5221 29.0063C27.5186 32.3867 27.7257 33.5032 27.9062 33.8279C28.3797 34.6692 30.0252 35.8413 31.6291 35.8475H31.638C33.2686 35.8475 34.9259 34.6723 35.3994 33.8279C35.5799 33.5032 35.7841 32.3836 33.7599 29.0063C32.9786 27.7011 32.1204 26.4981 31.6291 25.8362V25.8331Z" fill="#FF5C00" stroke="#FF5C00" stroke-width="0.653261"/>
</svg>
