<svg width="63" height="63" viewBox="0 0 63 63" fill="none" xmlns="http://www.w3.org/2000/svg">
<rect x="2.9739" y="0.330435" width="59.4783" height="59.4783" fill="#F8F7F6" stroke="#2B2B2B" stroke-width="0.66087"/>
<rect x="0.330404" y="2.31304" width="59.4783" height="59.4783" fill="#FEDFFF" stroke="#2B2B2B" stroke-width="0.66087"/>
<path d="M31.1582 38.1334C31.4166 38.1334 31.6168 38.0028 31.6168 37.8723C31.6168 37.807 31.5522 37.6764 31.4877 37.6764C31.4231 37.6112 31.2939 37.5459 31.1647 37.5459V38.1399L31.1582 38.1334ZM30.8999 35.7639C30.6415 35.7639 30.5059 35.8944 30.5059 36.0902C30.5059 36.1555 30.5059 36.2861 30.5705 36.2861C30.6351 36.3513 30.6997 36.4166 30.8288 36.4166V35.7573H30.8934L30.8999 35.7639ZM30.8999 37.4088L30.6415 37.3435C30.4478 37.2782 30.3186 37.213 30.183 37.1477C30.0538 37.0824 29.9246 37.0171 29.86 36.9519C29.7954 36.8866 29.7308 36.756 29.6663 36.6908C29.6017 36.5602 29.6017 36.4297 29.6017 36.2926C29.6017 36.0968 29.6663 35.9009 29.7308 35.7639C29.7954 35.6333 29.86 35.5027 29.9892 35.3722C30.1184 35.2416 30.2475 35.1764 30.3832 35.1111C30.5124 35.0458 30.7061 34.9805 30.9064 34.9805V34.3865H31.2939V34.9805C31.5522 34.9805 31.7525 35.0458 31.9462 35.1111C32.14 35.1764 32.3338 35.3069 32.4694 35.3722L32.0754 36.162L32.0108 36.0968C31.9462 36.0315 31.8816 36.0315 31.8171 35.9662C31.7525 35.9009 31.6233 35.9009 31.5587 35.8357C31.4295 35.7704 31.3649 35.7704 31.2358 35.7704V36.4949L31.4295 36.5602C31.6233 36.6255 31.7525 36.6908 31.9527 36.756C32.0819 36.8213 32.211 36.8866 32.3402 36.9519C32.4694 37.0171 32.534 37.1477 32.5986 37.2782C32.6632 37.4088 32.6632 37.5394 32.6632 37.7417C32.6632 37.9441 32.5986 38.1334 32.534 38.2704C32.4694 38.401 32.3402 38.5315 32.211 38.6621C32.0819 38.7274 31.9527 38.8579 31.7525 38.8579C31.6233 38.9232 31.4295 38.9232 31.2293 38.9232V39.5825H30.8418V38.9232C30.5834 38.9232 30.3186 38.8579 30.0602 38.7926C29.8019 38.7274 29.6017 38.5968 29.4079 38.4663L29.8019 37.6764C29.8019 37.6764 29.8665 37.7417 29.9311 37.7417C29.9957 37.7417 30.0602 37.807 30.1894 37.8723C30.3186 37.9375 30.3832 37.9375 30.5124 38.0028C30.6415 38.0681 30.7707 38.0681 30.9064 38.0681V37.4088H30.8999Z" fill="#AB1ECE"/>
<path d="M30.9645 47.7421C23.343 47.7421 17.0973 41.4887 17.0973 33.7274V24.7128C17.0973 24.2493 17.4848 23.8577 17.9434 23.8577H22.0448C22.5034 23.8577 22.8909 24.2493 22.8909 24.7128C22.8909 25.1763 22.5034 25.5679 22.0448 25.5679H18.7895V33.7274C18.7895 40.503 24.2602 46.0971 31.029 46.0971C37.7979 46.0971 43.204 40.503 43.204 33.7274V25.5026H39.9487C39.4901 25.5026 39.1026 25.1045 39.1026 24.6475C39.1026 24.1906 39.4966 23.7924 39.9487 23.7924H43.9855C44.4441 23.7924 44.8316 24.1906 44.8316 24.6475V33.7274C44.8316 41.4299 38.5794 47.7421 30.958 47.7421H30.9645Z" fill="#AB1ECE"/>
<path d="M35.8474 29.6409H17.937C17.4784 29.6409 17.0909 29.2428 17.0909 28.7858C17.0909 28.3289 17.4784 27.9307 17.937 27.9307H35.8474C36.306 27.9307 36.6935 28.3224 36.6935 28.7858C36.6935 29.2493 36.306 29.6409 35.8474 29.6409Z" fill="#AB1ECE"/>
<path d="M30.9645 44.452C30.5059 44.452 30.1183 44.0603 30.1183 43.5969V41.0968C30.1183 40.6334 30.5059 40.2417 30.9645 40.2417C31.423 40.2417 31.8106 40.6334 31.8106 41.0968V43.5969C31.8106 44.0603 31.423 44.452 30.9645 44.452Z" fill="#AB1ECE"/>
<path d="M44.8381 47.742H17.1619C16.7033 47.742 16.3158 47.3504 16.3158 46.8869C16.3158 46.4235 16.7033 46.0318 17.1619 46.0318H44.8381C45.2902 46.0318 45.6842 46.4235 45.6842 46.8869C45.6196 47.3504 45.2256 47.742 44.8381 47.742Z" fill="#AB1ECE"/>
<path d="M39.9488 25.4961H36.6935C36.2349 25.4961 35.8474 25.0979 35.8474 24.6409C35.8474 24.184 36.2414 23.7858 36.6935 23.7858H39.1673V22.9307C39.1673 18.3875 35.518 14.706 31.0291 14.706C26.5402 14.706 22.8909 18.3941 22.8909 22.9307V23.8511H25.3647C25.8233 23.8511 26.2108 24.2428 26.2108 24.7062C26.2108 25.1697 25.8233 25.5613 25.3647 25.5613H22.1094C21.6508 25.5613 21.2633 25.1631 21.2633 24.7062V23.0613C21.2633 17.5977 25.623 13.1916 31.0291 13.1916C36.4352 13.1916 40.7949 17.6042 40.7949 23.0613V24.7062C40.7303 25.0979 40.3363 25.4961 39.9488 25.4961Z" fill="#AB1ECE"/>
<path d="M36.6935 25.496H25.3001C24.8415 25.496 24.454 25.0979 24.454 24.6409V22.996C24.454 19.3797 27.3863 16.4162 30.9645 16.4162C34.5427 16.4162 37.475 19.3797 37.475 22.996V24.6409C37.475 25.1044 37.0875 25.496 36.6935 25.496ZM26.0816 23.8511H35.8474V22.996C35.8474 20.3001 33.632 18.0611 30.9645 18.0611C28.297 18.0611 26.0816 20.3001 26.0816 22.996V23.8511Z" fill="#AB1ECE"/>
<path d="M30.9644 41.9454C28.2969 41.9454 26.0815 39.7065 26.0815 37.0106C26.0815 34.3147 28.2969 32.0757 30.9644 32.0757C33.6319 32.0757 35.8473 34.3147 35.8473 37.0106C35.8473 39.7065 33.6319 41.9454 30.9644 41.9454ZM30.9644 33.7207C29.143 33.7207 27.7092 35.1698 27.7092 37.0106C27.7092 38.8514 29.143 40.3005 30.9644 40.3005C32.7858 40.3005 34.2197 38.8514 34.2197 37.0106C34.2197 35.1698 32.7858 33.7207 30.9644 33.7207Z" fill="#AB1ECE"/>
</svg>
