<svg width="62" height="62" viewBox="0 0 62 62" fill="none" xmlns="http://www.w3.org/2000/svg">
<rect x="2.92017" y="0.324468" width="58.4043" height="58.4043" fill="#F8F7F6" stroke="#2B2B2B" stroke-width="0.648936"/>
<rect x="0.324468" y="2.27125" width="58.4043" height="58.4043" fill="#D7D9FF" stroke="#2B2B2B" stroke-width="0.648936"/>
<path d="M22.1414 23.2024V25.1804L21.4004 25.1192V23.2024H22.1414Z" fill="#4D80C9"/>
<path d="M22.1414 19.8647V21.8428L21.4004 21.5978V19.8647H22.1414Z" fill="#4D80C9"/>
<path d="M22.1415 23.2023H21.4005V22.9573C20.7208 22.7736 20.286 22.4613 19.9798 22.0938C19.6736 21.7203 19.545 21.2304 19.545 20.7343C19.545 20.177 19.7287 19.7422 20.041 19.3748C20.4146 19.0012 20.8433 18.7563 21.4005 18.7563V18.2603H22.1415V18.7563C22.6988 18.8175 23.1275 19.0012 23.4398 19.3136C23.746 19.6198 23.9358 19.9933 24.0583 20.4894L22.76 20.6731C22.6988 20.2995 22.4538 19.9933 22.1415 19.8708H21.4005C21.2168 19.9321 21.027 20.0546 20.9045 20.2444C20.782 20.4281 20.7208 20.5506 20.7208 20.8017C20.7208 20.9854 20.782 21.1752 20.9045 21.2977C21.027 21.4202 21.1495 21.5427 21.4005 21.6713L22.1415 21.9162C22.9438 22.0999 23.501 22.4123 23.8134 22.7797C24.1196 23.1533 24.2482 23.5819 24.2482 24.1392C24.2482 24.7577 24.0644 25.2538 23.6909 25.6824C23.3173 26.1172 22.8274 26.3622 22.1477 26.4847V27.2257H21.4067V26.301C20.8494 26.2397 20.3533 25.9948 19.9859 25.6824C19.6123 25.3089 19.3674 24.819 19.3062 24.1392L20.6044 24.0167C20.6657 24.2617 20.7881 24.5128 20.9106 24.6965C21.0331 24.8802 21.2168 25.0027 21.4067 25.1313L22.1477 25.1925C22.3926 25.1313 22.5825 25.0088 22.7662 24.819C22.9499 24.6353 23.0111 24.3842 23.0111 24.1392C23.0111 23.8943 22.9499 23.7044 22.8274 23.5819C22.6437 23.4595 22.4538 23.337 22.1477 23.2084L22.1415 23.2023Z" fill="#4D80C9"/>
<path d="M11.75 22.7677C11.75 28.2846 16.2548 32.7241 21.7676 32.7241C27.2825 32.7241 31.7853 28.2213 31.7853 22.7064C31.7853 17.1895 27.2805 12.75 21.7676 12.75C16.2528 12.75 11.75 17.2528 11.75 22.7677ZM13.0522 22.7738C13.0522 17.9637 16.9576 14.0584 21.7676 14.0584C26.5777 14.0584 30.4831 17.9637 30.4831 22.7738C30.4831 27.5838 26.5777 31.4892 21.7676 31.4892C16.9576 31.4892 13.0522 27.5838 13.0522 22.7738Z" fill="#4D80C9" stroke="#4D80C9" stroke-width="0.5"/>
<path d="M29.75 38.7064C29.75 44.1611 34.2538 48.6628 39.7677 48.6628C45.2815 48.6628 49.7853 44.1611 49.7853 38.7064C49.7853 33.2518 45.2815 28.75 39.7677 28.75C34.2538 28.75 29.75 33.2518 29.75 38.7064ZM30.991 38.6513C30.991 33.8436 34.9614 29.9359 39.7677 29.9359C44.5799 29.9359 48.5443 33.8434 48.5443 38.6513C48.5443 43.4602 44.6401 47.3667 39.7677 47.3667C34.8952 47.3667 30.991 43.4602 30.991 38.6513Z" fill="#4D80C9" stroke="#4D80C9" stroke-width="0.5"/>
<path d="M40.4473 42.3225H40.5973V42.3136C41.3678 42.285 42.0274 42.0374 42.6254 41.6762L42.6254 41.6763L42.631 41.6726C42.9105 41.4863 42.8821 41.1296 42.7339 40.9073C42.5475 40.6278 42.1909 40.6563 41.9686 40.8045L41.9613 40.8093L41.9546 40.815C41.6204 41.0991 41.1003 41.2753 40.5086 41.2753C39.3945 41.2753 38.4051 40.5727 38.0534 39.5809L38.0535 39.5808L38.0513 39.5753C37.9355 39.2858 37.8783 38.9924 37.8783 38.7063C37.8783 38.3964 37.8799 38.1131 37.9897 37.8381C38.404 36.8354 39.3387 36.1373 40.4473 36.1373C40.9657 36.1373 41.4931 36.3165 41.9042 36.606L41.9042 36.606L41.9073 36.6081C42.166 36.7806 42.5083 36.6905 42.6726 36.4441L42.5478 36.3609L42.6726 36.4441C42.8439 36.1871 42.7562 35.8476 42.5135 35.6821C41.9246 35.2244 41.2114 35.0351 40.4473 35.0351C38.9003 35.0351 37.5461 36.0074 37.0294 37.4872L37.0294 37.4872L37.0285 37.4899C36.9006 37.8799 36.8373 38.3244 36.8373 38.7124C36.8373 39.1004 36.9006 39.545 37.0285 39.935L37.0284 39.935L37.0301 39.9396C37.5476 41.3581 38.902 42.3225 40.4473 42.3225Z" fill="#4D80C9" stroke="#4D80C9" stroke-width="0.3"/>
<path d="M35.94 38.1767H40.8207C40.9633 38.1767 41.0931 38.1088 41.1848 38.0171C41.2764 37.9255 41.3443 37.7957 41.3443 37.6531C41.3443 37.509 41.2736 37.3792 41.1819 37.2885C41.0904 37.198 40.961 37.1295 40.8207 37.1295H35.94C35.7974 37.1295 35.6676 37.1974 35.5759 37.2891C35.4843 37.3807 35.4164 37.5105 35.4164 37.6531C35.4164 37.7972 35.4871 37.927 35.5788 38.0177C35.6703 38.1082 35.7997 38.1767 35.94 38.1767Z" fill="#4D80C9" stroke="#4D80C9" stroke-width="0.3"/>
<path d="M35.94 40.216H40.8207C40.9633 40.216 41.0931 40.1481 41.1848 40.0564C41.2764 39.9648 41.3443 39.835 41.3443 39.6924C41.3443 39.5483 41.2736 39.4185 41.1819 39.3278C41.0904 39.2373 40.961 39.1688 40.8207 39.1688H35.94C35.7974 39.1688 35.6676 39.2367 35.5759 39.3284C35.4843 39.42 35.4164 39.5498 35.4164 39.6924C35.4164 39.8365 35.4871 39.9663 35.5788 40.057C35.6703 40.1475 35.7997 40.216 35.94 40.216Z" fill="#4D80C9" stroke="#4D80C9" stroke-width="0.3"/>
<path d="M45.2997 22.1823H45.36C45.3886 22.1884 45.4426 22.1965 45.5051 22.1823H45.7041L45.6605 22.095C45.7004 22.0559 45.7285 22.0127 45.7476 21.9824C45.7846 21.9236 45.8298 21.8407 45.888 21.731L45.9171 21.676V21.6138V15.3736C45.9171 15.1967 45.831 15.0426 45.7251 14.9378C45.6196 14.8335 45.4661 14.75 45.2936 14.75H38.3736C38.1992 14.75 38.0452 14.8325 37.9388 14.9388C37.8325 15.0452 37.75 15.1992 37.75 15.3736C37.75 15.5504 37.8362 15.7045 37.9421 15.8093C38.0476 15.9136 38.2011 15.9971 38.3736 15.9971H44.6762V21.5587C44.6762 21.7356 44.7623 21.8897 44.8682 21.9944C44.9737 22.0988 45.1272 22.1823 45.2997 22.1823Z" fill="#4D80C9" stroke="#4D80C9" stroke-width="0.5"/>
<path d="M18.1001 42.9378V37.3762C18.1001 37.2019 18.0177 37.0479 17.9113 36.9415C17.805 36.8351 17.651 36.7527 17.4766 36.7527C17.2997 36.7527 17.1456 36.8389 17.0409 36.9448C16.9365 37.0503 16.853 37.2037 16.853 37.3762V43.6165C16.853 43.7934 16.9392 43.9475 17.0451 44.0522C17.1506 44.1566 17.3041 44.2401 17.4766 44.2401H24.293L24.2992 44.2462H24.4027C24.5982 44.2462 24.7662 44.1687 24.8795 44.0261C24.9865 43.8913 25.0263 43.7219 25.0263 43.5614C25.0263 43.3845 24.9401 43.2304 24.8342 43.1257C24.7287 43.0213 24.5752 42.9378 24.4027 42.9378H18.1001Z" fill="#4D80C9" stroke="#4D80C9" stroke-width="0.5"/>
<path d="M42.8766 20.7196L42.8766 20.7196L42.8795 20.7214L44.9616 22.069C45.0905 22.1827 45.2292 22.1824 45.2936 22.1823C45.2956 22.1823 45.2976 22.1823 45.2995 22.1823C45.5163 22.1823 45.6987 22.0765 45.8499 21.9254L45.8674 21.9078L45.8811 21.8872C46.0869 21.5786 45.9775 21.1754 45.6893 20.9833L45.6893 20.9833L45.6864 20.9814L43.5872 19.6227C43.2787 19.4184 42.8766 19.5278 42.6848 19.8156C42.479 20.1243 42.5884 20.5274 42.8766 20.7196Z" fill="#4D80C9" stroke="#4D80C9" stroke-width="0.5"/>
<path d="M44.9805 20.9814L44.9805 20.9814L44.9777 20.9833C44.6935 21.1728 44.5831 21.5674 44.7775 21.8744C44.8891 22.0837 45.1012 22.1823 45.3001 22.1823H45.3062C45.3625 22.1823 45.4085 22.1683 45.4363 22.1585C45.4539 22.1523 45.4791 22.1419 45.4917 22.1366C45.4949 22.1353 45.4973 22.1343 45.4986 22.1338C45.5233 22.1239 45.5353 22.1211 45.5512 22.1211H45.625L45.687 22.0809L47.7875 20.7214L47.7875 20.7214L47.7904 20.7196C48.0786 20.5274 48.188 20.1243 47.9822 19.8156C47.7903 19.5278 47.3883 19.4184 47.0798 19.6227L44.9805 20.9814Z" fill="#4D80C9" stroke="#4D80C9" stroke-width="0.5"/>
<path d="M15.0504 38.2134L15.0503 38.2133L15.0475 38.2152C14.7633 38.4047 14.653 38.7994 14.8473 39.1063C14.9589 39.3156 15.171 39.4142 15.3699 39.4142H15.376C15.377 39.4142 15.3781 39.4142 15.3792 39.4142C15.4097 39.4142 15.473 39.4143 15.5396 39.4032C15.597 39.3936 15.6919 39.3706 15.7733 39.3022L17.8573 37.9534L17.8574 37.9534L17.8602 37.9515C18.1484 37.7593 18.2578 37.3562 18.052 37.0475C17.8602 36.7598 17.4581 36.6503 17.1496 36.8547L15.0504 38.2134Z" fill="#4D80C9" stroke="#4D80C9" stroke-width="0.5"/>
<path d="M17.1158 37.9205L17.1345 37.9392L17.1568 37.9536L19.2389 39.3012C19.3678 39.4149 19.5065 39.4146 19.5709 39.4145C19.5729 39.4145 19.5749 39.4145 19.5768 39.4145H19.583C19.7819 39.4145 19.9939 39.3159 20.1055 39.1066C20.2999 38.7996 20.1896 38.405 19.9053 38.2155L19.9054 38.2154L19.9009 38.2126L17.8788 36.9252C17.7976 36.8574 17.7032 36.8346 17.646 36.825C17.5794 36.8139 17.5161 36.8139 17.4856 36.814C17.4845 36.814 17.4835 36.814 17.4824 36.814C17.3056 36.814 17.1515 36.9001 17.0467 37.006C16.9424 37.1116 16.8589 37.265 16.8589 37.4375C16.8589 37.4938 16.8728 37.5404 16.8844 37.5712C16.8949 37.5992 16.9078 37.625 16.9147 37.6387C16.9151 37.6396 16.9155 37.6404 16.9159 37.6412L16.9216 37.6528C16.9265 37.704 16.9436 37.755 16.9758 37.801C17.0098 37.8495 17.0509 37.8779 17.0697 37.8905C17.1074 37.9156 17.1104 37.9159 17.1126 37.9174C17.1134 37.918 17.114 37.9186 17.1158 37.9205Z" fill="#4D80C9" stroke="#4D80C9" stroke-width="0.5"/>
</svg>
