<svg width="62" height="62" viewBox="0 0 62 62" fill="none" xmlns="http://www.w3.org/2000/svg">
<rect x="2.9202" y="0.324468" width="58.4043" height="58.4043" fill="#F8F7F6" stroke="#2B2B2B" stroke-width="0.648936"/>
<rect x="0.324468" y="2.27112" width="58.4043" height="58.4043" fill="#DAF0F6" stroke="#2B2B2B" stroke-width="0.648936"/>
<path fill-rule="evenodd" clip-rule="evenodd" d="M30.1304 15.5949C30.2039 15.5674 30.2849 15.5674 30.3584 15.5949L43.5159 20.533C43.5764 20.5557 43.6165 20.6136 43.6165 20.6782C43.6165 20.7639 43.547 20.8334 43.4613 20.8334H17.0274C16.9417 20.8334 16.8723 20.7639 16.8723 20.6782C16.8723 20.6136 16.9124 20.5557 16.9729 20.533L30.1304 15.5949ZM31.0424 13.7723C30.5279 13.5792 29.9608 13.5792 29.4463 13.7723L16.2889 18.7103C15.4687 19.0181 14.9255 19.8022 14.9255 20.6782C14.9255 21.8391 15.8666 22.7802 17.0274 22.7802H43.4613C44.6222 22.7802 45.5633 21.8391 45.5633 20.6782C45.5633 19.8022 45.02 19.0181 44.1999 18.7103L31.0424 13.7723ZM20.5195 26.6709V36.6381H22.463V26.6709H20.5195ZM18.5727 26.3464C18.5727 25.4504 19.299 24.7241 20.195 24.7241H22.7874C23.6834 24.7241 24.4098 25.4504 24.4098 26.3464V36.9626C24.4098 37.8586 23.6834 38.585 22.7874 38.585H20.195C19.299 38.585 18.5727 37.8586 18.5727 36.9626V26.3464ZM29.0295 26.6709V36.6381H30.973V26.6709H29.0295ZM27.0827 26.3464C27.0827 25.4504 27.809 24.7241 28.705 24.7241H31.2974C32.1934 24.7241 32.9198 25.4504 32.9198 26.3464V36.9626C32.9198 37.8586 32.1934 38.585 31.2974 38.585H28.705C27.809 38.585 27.0827 37.8586 27.0827 36.9626V26.3464ZM37.7827 36.6381V26.6709H39.7262V36.6381H37.7827ZM37.4582 24.7241C36.5622 24.7241 35.8359 25.4504 35.8359 26.3464V36.9626C35.8359 37.8586 36.5622 38.585 37.4582 38.585H40.0507C40.9467 38.585 41.673 37.8586 41.673 36.9626V26.3464C41.673 25.4504 40.9467 24.7241 40.0507 24.7241H37.4582ZM16.8723 42.7184V44.1756H43.6165V42.7184H16.8723ZM14.9255 42.3939C14.9255 41.4979 15.6518 40.7715 16.5478 40.7715H43.941C44.837 40.7715 45.5633 41.4979 45.5633 42.3939V44.5C45.5633 45.396 44.8369 46.1224 43.941 46.1224H16.5478C15.6518 46.1224 14.9255 45.396 14.9255 44.5V42.3939Z" fill="#009DB2"/>
</svg>
