<svg width="63" height="62" viewBox="0 0 63 62" fill="none" xmlns="http://www.w3.org/2000/svg">
<rect x="2.93966" y="0.32663" width="58.7935" height="58.7935" fill="#F8F7F6" stroke="#2B2B2B" stroke-width="0.653261"/>
<rect x="0.326615" y="2.28641" width="58.7935" height="58.7935" fill="#FBE0FF" stroke="#2B2B2B" stroke-width="0.653261"/>
<path d="M20.6237 28.6789L22.5498 38.0818" stroke="#AF24E0" stroke-width="2"/>
<path d="M38.24 31.357L30.8232 39.1402" stroke="#AF24E0" stroke-width="2"/>
<path d="M36.8169 23.8544L31.0136 22.3283L27.6423 21.3906" stroke="#AF24E0" stroke-width="2"/>
<circle cx="19.8874" cy="21.194" r="7.82222" stroke="#AF24E0" stroke-width="2"/>
<circle cx="25.9121" cy="42.8726" r="6.42385" stroke="#AF24E0" stroke-width="1.95978"/>
<circle cx="42.2441" cy="26.5405" r="6.42385" stroke="#AF24E0" stroke-width="1.95978"/>
<path d="M19.9055 21.2493L19.8971 20.2494L19.9087 22.2493L19.9055 21.2493ZM19.8901 21.2494L19.8965 22.2494L19.889 20.2494L19.8901 21.2494ZM17.2528 22.4632L16.3488 22.0356H16.3488L17.2528 22.4632ZM16.7821 23.8641L17.7653 24.0464H17.7653L16.7821 23.8641ZM22.9787 23.866L21.9996 24.0691L21.9996 24.0691L22.9787 23.866ZM22.2585 22.1386L21.4162 22.6776L22.2585 22.1386ZM20.9951 19.1417C20.9951 19.7503 20.5043 20.2443 19.8971 20.2494L19.9139 22.2493C21.6181 22.235 22.9951 20.8492 22.9951 19.1417H20.9951ZM19.8874 18.0341C20.4992 18.0341 20.9951 18.53 20.9951 19.1417H22.9951C22.9951 17.4254 21.6037 16.0341 19.8874 16.0341V18.0341ZM18.7797 19.1417C18.7797 18.53 19.2756 18.0341 19.8874 18.0341V16.0341C18.1711 16.0341 16.7797 17.4254 16.7797 19.1417H18.7797ZM19.8874 20.2494C19.2756 20.2494 18.7797 19.7535 18.7797 19.1417H16.7797C16.7797 20.8581 18.1711 22.2494 19.8874 22.2494V20.2494ZM19.889 20.2494C19.8881 20.2494 19.8877 20.2494 19.8874 20.2494V22.2494C19.8889 22.2494 19.8903 22.2494 19.8912 22.2494L19.889 20.2494ZM19.8837 20.2494C19.2237 20.2537 18.5259 20.3701 17.9093 20.6318C17.2985 20.891 16.6815 21.3323 16.3488 22.0356L18.1568 22.8908C18.2108 22.7765 18.357 22.6144 18.6905 22.4729C19.0181 22.3339 19.4457 22.2523 19.8965 22.2494L19.8837 20.2494ZM16.3488 22.0356C16.0636 22.6386 15.8881 23.2005 15.7988 23.6818L17.7653 24.0464C17.8207 23.7475 17.9396 23.3499 18.1568 22.8908L16.3488 22.0356ZM15.7988 23.6818C15.6086 24.7078 16.4666 25.4108 17.2763 25.4108V23.4108C17.3953 23.4108 17.5251 23.4594 17.6262 23.5681C17.7353 23.6852 17.7991 23.8642 17.7653 24.0464L15.7988 23.6818ZM17.2763 25.4108H22.4984V23.4108H17.2763V25.4108ZM22.4984 25.4108C23.321 25.4108 24.1708 24.6894 23.9579 23.6629L21.9996 24.0691C21.9627 23.8913 22.0196 23.7055 22.135 23.5783C22.2421 23.4601 22.3794 23.4108 22.4984 23.4108V25.4108ZM23.9579 23.6629C23.8504 23.1449 23.6152 22.4032 23.1008 21.5995L21.4162 22.6776C21.7774 23.2419 21.9327 23.7469 21.9996 24.0691L23.9579 23.6629ZM23.1008 21.5995C22.7495 21.0505 22.1839 20.7223 21.6561 20.5325C21.1124 20.337 20.4992 20.2474 19.9023 20.2493L19.9087 22.2493C20.3145 22.248 20.6908 22.3108 20.9794 22.4145C21.2839 22.524 21.3935 22.642 21.4162 22.6776L23.1008 21.5995Z" fill="#AF24E0"/>
<circle cx="25.8776" cy="40.8289" r="1.49756" fill="#AF24E0"/>
<circle cx="42.1844" cy="24.5223" r="1.49756" fill="#AF24E0"/>
<path fill-rule="evenodd" clip-rule="evenodd" d="M28.8728 45.4877L28.8728 44.9873L28.8728 44.9861L28.8728 44.9836L28.8727 44.9786L28.8726 44.9679C28.8725 44.9606 28.8723 44.9528 28.872 44.9445C28.8714 44.9281 28.8705 44.9098 28.8692 44.8899C28.8664 44.85 28.8617 44.8032 28.8539 44.7503C28.8384 44.6446 28.8106 44.5145 28.7617 44.3669C28.6628 44.0682 28.482 43.7122 28.1632 43.353C27.817 42.9629 27.3349 42.8046 27.0312 42.7317C26.6791 42.6472 26.295 42.6156 25.9322 42.6256C25.5711 42.6356 25.1773 42.6883 24.8131 42.8071C24.4843 42.9144 23.9952 43.1352 23.6835 43.6105C23.4 44.0427 23.2153 44.5272 23.2153 44.9885V45.0524C23.2153 45.6604 23.7082 46.1533 24.3163 46.1533H27.7718C28.3799 46.1533 28.8728 45.6604 28.8728 45.0524V44.9885V45.4877Z" fill="#AF24E0"/>
<path fill-rule="evenodd" clip-rule="evenodd" d="M45.1795 28.6815L45.1795 28.6803L45.1795 28.6791L45.1795 28.6767L45.1795 28.6716L45.1794 28.6609C45.1792 28.6536 45.179 28.6458 45.1788 28.6376C45.1782 28.6211 45.1773 28.6029 45.1759 28.5829C45.1731 28.543 45.1684 28.4962 45.1607 28.4434C45.1451 28.3376 45.1173 28.2075 45.0685 28.0599C44.9696 27.7613 44.7887 27.4052 44.47 27.046C44.1238 26.6559 43.6417 26.4976 43.338 26.4248C42.9858 26.3403 42.6017 26.3086 42.2389 26.3187C41.8779 26.3286 41.484 26.3813 41.1198 26.5001C40.7911 26.6074 40.302 26.8282 39.9902 27.3035C39.7068 27.7357 39.5221 28.2203 39.5221 28.6816V28.7454C39.5221 29.3534 40.015 29.8463 40.623 29.8463H44.0786C44.6866 29.8463 45.1795 29.3534 45.1795 28.7454V28.6815Z" fill="#AF24E0"/>
</svg>
