<svg width="63" height="63" viewBox="0 0 63 63" fill="none" xmlns="http://www.w3.org/2000/svg">
<rect x="2.98384" y="0.33154" width="59.6771" height="59.6771" fill="#F8F7F6" stroke="#2B2B2B" stroke-width="0.663079"/>
<rect x="0.33154" y="2.32068" width="59.6771" height="59.6771" fill="#EED9FF" stroke="#2B2B2B" stroke-width="0.663079"/>
<path d="M28.847 42.2722V42.2722C28.847 40.5634 27.62 39.1423 26.1774 38.2265C25.1676 37.5853 24.2857 36.7399 23.5918 35.7315C22.3368 33.9077 21.7847 31.6783 22.0405 29.4674C22.2963 27.2565 23.3422 25.2184 24.9792 23.7407C26.6162 22.263 28.7301 21.4488 30.9188 21.453C33.1075 21.4572 35.2183 22.2796 36.8498 23.7636C38.4813 25.2476 39.5195 27.2897 39.7671 29.5016C40.0146 31.7134 39.4542 33.9407 38.1925 35.7597C37.5219 36.7264 36.774 37.5398 35.9005 38.1654C34.5125 39.1596 33.2637 40.5649 33.2637 42.2722V42.2722" stroke="#7E20C8" stroke-width="1.98924"/>
<path d="M34.4708 42.2721H27.3328V45.8411C27.3328 47.8122 28.9307 49.4101 30.9018 49.4101C32.8729 49.4101 34.4708 47.8122 34.4708 45.8411V42.2721Z" stroke="#7E20C8" stroke-width="1.98924"/>
<path d="M30.9019 11.9355V16.6942" stroke="#7E20C8" stroke-width="1.98924" stroke-linecap="round"/>
<path d="M50.5313 29.7805L45.7726 29.7805" stroke="#7E20C8" stroke-width="1.98924" stroke-linecap="round"/>
<path d="M16.031 29.7805L11.2724 29.7805" stroke="#7E20C8" stroke-width="1.98924" stroke-linecap="round"/>
<path d="M20.4943 20.6902L18.329 18.6567" stroke="#7E20C8" stroke-width="1.98924" stroke-linecap="round"/>
<path d="M40.7825 20.6902L42.9478 18.6567" stroke="#7E20C8" stroke-width="1.98924" stroke-linecap="round"/>
<path d="M30.9018 42.0039C30.9018 42.0039 30.1525 35.5627 29.7122 34.2419C29.2719 32.9211 28.82 30.6726 27.3329 30.9703C25.8458 31.2681 26.1432 32.4574 26.738 33.0523C27.3328 33.6471 35.0657 33.9445 35.6605 33.3497C36.2553 32.7549 35.6604 30.97 34.1733 31.2674C32.6863 31.5648 32.6863 33.0523 32.3889 34.5394C32.0915 36.0264 31.1992 42.2722 31.1992 42.2722" stroke="#7E20C8" stroke-width="1.32616"/>
</svg>
