<svg width="63" height="63" viewBox="0 0 63 63" fill="none" xmlns="http://www.w3.org/2000/svg">
<rect x="2.98385" y="0.33154" width="59.6771" height="59.6771" fill="#F8F7F6" stroke="#2B2B2B" stroke-width="0.663079"/>
<rect x="0.33154" y="2.32068" width="59.6771" height="59.6771" fill="#D8E0FF" stroke="#2B2B2B" stroke-width="0.663079"/>
<path d="M44.078 39.5711H16.1503C14.9049 39.5711 13.8919 38.5474 13.8919 37.2887V18.1127C13.8919 16.8541 14.9054 15.8298 16.1503 15.8298H44.078C45.3234 15.8298 46.3368 16.8541 46.3368 18.1127V37.2887C46.3364 38.5474 45.3229 39.5711 44.078 39.5711ZM16.1498 17.4247C15.7744 17.4247 15.4695 17.7333 15.4695 18.1127V37.2887C15.4695 37.6677 15.7748 37.9763 16.1498 37.9763H44.0775C44.453 37.9763 44.7583 37.6677 44.7583 37.2887V18.1127C44.7583 17.7333 44.453 17.4247 44.0775 17.4247H16.1498Z" fill="#2044C8"/>
<path d="M44.078 39.5712H16.1503C14.9049 39.5712 13.8919 38.5474 13.8919 37.2888V31.8833H46.3368V37.2888C46.3364 38.5474 45.3229 39.5712 44.078 39.5712ZM15.4695 33.4777V37.2883C15.4695 37.6678 15.7748 37.9759 16.1498 37.9759H44.0775C44.453 37.9759 44.7583 37.6673 44.7583 37.2883V33.4777H15.4695Z" fill="#2044C8"/>
<path d="M36.9062 47.4893H23.3215C22.0902 47.4893 21.0886 46.477 21.0886 45.2326V45.088C21.0886 44.0419 21.8122 43.1352 22.8487 42.8827C24.8459 42.3967 25.5545 39.9873 25.7987 38.5941L25.914 37.936H34.3128L34.4281 38.5941C34.6727 39.9873 35.3808 42.3967 37.3785 42.8827C38.415 43.1352 39.1387 44.0419 39.1387 45.088V45.2326C39.1391 46.477 38.1374 47.4893 36.9062 47.4893ZM27.2182 39.5309C26.7971 41.3264 25.7596 43.8147 23.2185 44.4333C22.8882 44.5136 22.6666 44.7771 22.6666 45.088V45.2326C22.6666 45.5978 22.9607 45.8945 23.3215 45.8945H36.9062C37.267 45.8945 37.5611 45.5978 37.5611 45.2326V45.088C37.5611 44.7771 37.3395 44.5136 37.0092 44.4333C34.468 43.8151 33.4306 41.3264 33.0095 39.5309H27.2182Z" fill="#2044C8"/>
<path d="M19.1849 24.8746C18.8603 24.8746 18.5971 24.6115 18.5971 24.2869L18.5971 20.7482L18.5971 20.7076C18.597 20.3829 18.8601 20.1196 19.1849 20.1196H19.4206C19.7452 20.1196 20.0084 20.3828 20.0084 20.7074V24.2868C20.0084 24.6115 19.7452 24.8746 19.4206 24.8746H19.1849Z" fill="#2044C8"/>
<path d="M29.0653 24.875C28.7407 24.875 28.4776 24.6118 28.4776 24.2872L28.4775 20.7486L28.4775 20.708C28.4774 20.3833 28.7406 20.12 29.0653 20.12H29.301C29.6256 20.12 29.8888 20.3832 29.8888 20.7078V24.2872C29.8888 24.6118 29.6256 24.875 29.301 24.875H29.0653Z" fill="#2044C8"/>
<path d="M32.2412 35.8114C32.2412 36.5992 31.6091 37.2379 30.8298 37.2379C30.05 37.2379 29.4183 36.5992 29.4183 35.8114C29.4183 35.0236 30.0504 34.3849 30.8298 34.3849C31.6095 34.3853 32.2412 35.0236 32.2412 35.8114Z" fill="#2044C8"/>
<rect x="22.9039" y="20.8896" width="3.45412" height="3.45412" rx="1.6881" stroke="#2044C8" stroke-width="1.32616"/>
<rect x="32.9424" y="20.8896" width="3.45412" height="3.45412" rx="1.6881" stroke="#2044C8" stroke-width="1.32616"/>
<rect x="39.1568" y="20.8896" width="3.45412" height="3.45412" rx="1.6881" stroke="#2044C8" stroke-width="1.32616"/>
</svg>
