<svg width="62" height="62" viewBox="0 0 62 62" fill="none" xmlns="http://www.w3.org/2000/svg">
<rect x="2.9202" y="0.324468" width="58.4043" height="58.4043" fill="#F8F7F6" stroke="#2B2B2B" stroke-width="0.648936"/>
<rect x="0.324468" y="2.27112" width="58.4043" height="58.4043" fill="#FFF3D4" stroke="#2B2B2B" stroke-width="0.648936"/>
<circle cx="23.4364" cy="29.9403" r="5.33411" stroke="#E9B52D" stroke-width="1.94681"/>
<path d="M12.8962 49.6295C13.1763 44.171 17.6909 39.8313 23.2191 39.8313C28.7472 39.8313 33.2618 44.171 33.5419 49.6295H12.8962Z" stroke="#E9B52D" stroke-width="1.94681"/>
<path d="M38.5475 42.7727C38.5475 41.6286 39.475 40.7011 40.6191 40.7011C41.7632 40.7011 42.6907 41.6286 42.6907 42.7727V49.6293H38.5475V42.7727Z" stroke="#E9B52D" stroke-width="1.94681"/>
<path d="M37.9892 46.7804L44.4027 23.329C44.4595 23.1214 44.3372 22.907 44.1295 22.8502C43.9452 22.7998 43.7535 22.9012 43.6916 23.0819L39.6005 35.0114L35.796 46.1051C35.581 46.7319 35.9399 47.41 36.579 47.5848C37.1906 47.7521 37.8219 47.3919 37.9892 46.7804Z" fill="#E9B52D"/>
<path d="M32.3541 44.9475H38.2266M12.9966 44.9475V44.9475C11.1947 44.9475 9.73407 43.4868 9.73407 41.685V18.8189C9.73407 15.9518 12.0584 13.6274 14.9256 13.6274H44.1277C46.9949 13.6274 49.3192 15.9518 49.3192 18.8189V39.756C49.3192 42.6232 46.9949 44.9475 44.1277 44.9475H43.0117" stroke="#E9B52D" stroke-width="1.94681"/>
</svg>
