<svg width="63" height="63" viewBox="0 0 63 63" fill="none" xmlns="http://www.w3.org/2000/svg">
<rect x="2.9739" y="0.330435" width="59.4783" height="59.4783" fill="#F8F7F6" stroke="#2B2B2B" stroke-width="0.66087"/>
<rect x="0.330435" y="2.31304" width="59.4783" height="59.4783" fill="#C9FCFF" stroke="#2B2B2B" stroke-width="0.66087"/>
<path d="M40.1288 26.1042L44.9391 49.9329H25.9984L31.7107 26.1042H40.1288Z" stroke="#577DA9" stroke-width="1.98261"/>
<path d="M25.0138 49.933H15.0005L19.6242 32.8252H26.0974L27.8313 41.3791" stroke="#577DA9" stroke-width="1.98261"/>
<path d="M20.4994 25.7987C22.7015 25.8505 23.1352 28.2173 22.7015 29.5531C21.4027 30.132 18.2504 30.4326 16.7976 29.8397C13.3817 28.4457 13.3424 25.8823 13.3817 24.8039C16.6889 26.4308 18.4125 25.7496 20.4994 25.7987Z" stroke="#577DA9" stroke-width="1.98261"/>
<path d="M36.4952 13.3674C39.5319 14.9641 41.3044 17.8435 38.3394 21.6255C34.6957 23.7913 29.0782 23.662 23.7912 21.6255C20.7658 20.4601 17.1826 16.5218 15.917 12.662C27.0957 17.513 32.2166 11.1176 36.4952 13.3674Z" stroke="#577DA9" stroke-width="1.98261"/>
</svg>
