<svg width="64" height="63" viewBox="0 0 64 63" fill="none" xmlns="http://www.w3.org/2000/svg">
<rect x="3.01382" y="0.334868" width="60.2762" height="60.2762" fill="#F8F7F6" stroke="#2B2B2B" stroke-width="0.669736"/>
<rect x="0.334868" y="2.34402" width="60.2762" height="60.2762" fill="#FFE4D4" stroke="#2B2B2B" stroke-width="0.669736"/>
<g clip-path="url(#clip0_1_186)">
<path d="M46.9686 33.1922C46.493 33.1922 46.0845 32.7836 46.0845 32.3081C46.0845 25.671 42.0862 19.8443 35.9246 17.3328C35.5161 17.1319 35.2482 16.6564 35.4491 16.2479C35.65 15.8393 36.1255 15.5714 36.5341 15.7723C39.789 17.0582 42.5617 19.2952 44.5977 22.2085C46.6337 25.1888 47.712 28.6447 47.712 32.3014C47.8526 32.7836 47.4441 33.1922 46.9686 33.1922Z" fill="#FF3F21"/>
<path d="M13.0933 33.1922C12.6178 33.1922 12.2093 32.7837 12.2093 32.3082C12.2093 31.0892 12.3432 29.9373 12.5508 28.7853C13.1603 25.939 14.4462 23.2332 16.2746 20.9963C18.1029 18.7594 20.5408 16.998 23.1862 15.913C23.5948 15.7121 24.1372 15.913 24.2712 16.3885C24.4721 16.7971 24.2712 17.3396 23.7957 17.4735C18.853 19.5095 15.1896 23.9097 14.1783 29.1269C13.9774 30.2119 13.8367 31.2969 13.8367 32.3818C13.9774 32.7837 13.5688 33.1922 13.0933 33.1922Z" fill="#FF3F21"/>
<path d="M27.0506 23.9767C26.6421 23.9767 26.3072 23.7088 26.2402 23.3672V23.3002V23.2333C26.1732 22.7577 26.4411 22.3559 26.9167 22.2153C27.3922 22.1483 27.794 22.4162 27.9346 22.8917C28.0686 23.3672 27.8007 23.769 27.3252 23.9097C27.1845 23.9767 27.1176 23.9767 27.0506 23.9767Z" fill="#FF3F21"/>
<path d="M27.1176 24.1174C26.776 24.1174 26.4411 23.9165 26.3072 23.5079C26.3072 23.441 26.3072 23.4409 26.3072 23.374C26.1732 22.8985 26.4411 22.423 26.9166 22.356C27.3922 22.222 27.8677 22.4899 27.9346 22.9654C28.0686 23.441 27.8007 23.9165 27.3922 24.0504C27.2515 24.0504 27.1845 24.1174 27.1176 24.1174Z" fill="#FF3F21"/>
<path d="M27.1846 24.3182C26.843 24.3182 26.5081 24.1173 26.3742 23.7757V23.7087C26.3742 23.7087 26.3742 23.6418 26.3072 23.6418C26.1733 23.1663 26.4412 22.6907 26.8497 22.5568C27.2582 22.4228 27.727 22.6238 27.9347 23.0993V23.1663C28.1356 23.5748 27.9347 24.1173 27.4592 24.2512C27.3922 24.3182 27.2515 24.3182 27.1846 24.3182Z" fill="#FF3F21"/>
<path d="M27.3922 24.6598C27.1243 24.6598 26.8497 24.5258 26.7157 24.3182C26.7157 24.2512 26.6488 24.2512 26.6488 24.1843C26.3809 23.7757 26.5148 23.2332 26.9167 23.0323C27.3252 22.7644 27.8677 22.8984 28.0686 23.3002C28.3365 23.7088 28.2026 24.1776 27.8677 24.4522C27.6601 24.5861 27.5261 24.6598 27.3922 24.6598Z" fill="#FF3F21"/>
<path d="M27.4592 24.7268C27.1913 24.7268 26.9837 24.5929 26.7827 24.3853L26.7158 24.3183C26.4479 23.9098 26.5148 23.4409 26.9167 23.1664C27.3252 22.8985 27.794 22.9654 28.0686 23.3673C28.0686 23.3673 28.0686 23.3673 28.0686 23.4342C28.3365 23.7758 28.2695 24.3116 27.9347 24.6532C27.794 24.7268 27.5931 24.7268 27.4592 24.7268Z" fill="#FF3F21"/>
<path d="M27.6601 24.9946C27.4592 24.9946 27.2516 24.9277 27.0506 24.7937C26.9837 24.7267 26.9837 24.7267 26.9837 24.7267L26.9167 24.6598C26.6488 24.3182 26.6488 23.7757 27.0506 23.4409C27.3922 23.173 27.9347 23.173 28.2696 23.5748C28.6111 23.9164 28.6111 24.4522 28.2696 24.7937C28.0686 24.8607 27.861 24.9946 27.6601 24.9946Z" fill="#FF3F21"/>
<path d="M27.7941 25.0616C27.5931 25.0616 27.3855 24.9946 27.2516 24.8607C27.1846 24.8607 27.1846 24.7937 27.1176 24.7937C26.7761 24.4521 26.7761 23.9163 27.1176 23.5748C27.4592 23.2332 27.995 23.2332 28.3365 23.5748C28.6781 23.8427 28.7451 24.3852 28.4705 24.7937C28.2696 24.9946 28.0017 25.0616 27.7941 25.0616Z" fill="#FF3F21"/>
<path d="M28.0016 25.2693C27.8677 25.2693 27.7337 25.2023 27.5931 25.1353C27.5261 25.1353 27.5261 25.0684 27.4591 25.0684C27.0506 24.8005 26.9836 24.258 27.2582 23.9164C27.5261 23.5079 28.0686 23.4409 28.4102 23.7155C28.8187 23.9164 28.9526 24.4589 28.6781 24.8674C28.5441 25.1286 28.2695 25.2693 28.0016 25.2693Z" fill="#FF3F21"/>
<path d="M28.2695 25.4032C28.1356 25.4032 28.0686 25.4032 27.9279 25.3363C27.861 25.3363 27.861 25.2693 27.794 25.2693C27.727 25.2693 27.727 25.2023 27.66 25.2023C27.5931 25.2023 27.5931 25.1354 27.5261 25.1354C27.1176 24.8675 26.9836 24.3919 27.2582 23.9834C27.5261 23.5749 28.0016 23.4409 28.4102 23.7155C28.4102 23.7155 28.4102 23.7155 28.4771 23.7155C28.8857 23.9164 29.0866 24.3919 28.9526 24.8005C28.9459 25.1956 28.6111 25.4032 28.2695 25.4032Z" fill="#FF3F21"/>
<path d="M28.4771 25.4702C28.4102 25.4702 28.3432 25.4702 28.2092 25.4032C28.1423 25.4032 28.0083 25.3362 27.9413 25.3362C27.5328 25.1353 27.3319 24.6598 27.4658 24.2513C27.6667 23.8427 28.1423 23.6418 28.5508 23.7758C28.5508 23.7758 28.6178 23.7758 28.6847 23.8427C29.1603 23.9767 29.3612 24.4522 29.2272 24.9277C29.1536 25.2693 28.812 25.4702 28.4771 25.4702Z" fill="#FF3F21"/>
<path d="M28.4035 25.4701C28.3365 25.4701 28.3365 25.4701 28.2695 25.4701C27.794 25.3362 27.5931 24.8607 27.727 24.3852C27.861 23.9097 28.3365 23.7087 28.745 23.8427L28.4035 25.4701Z" fill="#FF3F21"/>
<path d="M28.812 25.5371C28.7451 25.5371 28.7451 25.5371 28.6781 25.5371H28.6111H28.5442C28.0686 25.4702 27.8007 24.9946 27.8677 24.5191C27.9347 24.0436 28.4102 23.7757 28.8857 23.8427C28.8857 23.8427 28.8857 23.8427 28.9527 23.8427C29.4282 23.9097 29.6961 24.3852 29.6291 24.7937C29.5555 25.2692 29.2206 25.5371 28.812 25.5371Z" fill="#FF3F21"/>
<path d="M28.879 25.5372H28.812C28.745 25.5372 28.6781 25.5372 28.6781 25.5372C28.2026 25.4702 27.9347 24.9947 28.0016 24.5861C28.0686 24.1776 28.5441 23.8427 28.9527 23.9097C29.4282 23.9767 29.763 24.3852 29.6961 24.8607C29.6961 25.1956 29.2875 25.5372 28.879 25.5372Z" fill="#FF3F21"/>
<path d="M28.9459 25.5371H28.879C28.812 25.5371 28.812 25.5371 28.812 25.5371C28.3365 25.4701 28.0016 25.0616 28.0686 24.586C28.1356 24.1105 28.5441 23.7757 29.0196 23.8426H29.0866L28.9459 25.5371Z" fill="#FF3F21"/>
<path d="M30.915 25.5371C30.4395 25.5371 30.1046 25.1955 30.1046 24.7267C30.1046 24.2512 30.4461 23.8493 30.915 23.8493H30.9819C31.4574 23.7824 31.866 24.1172 31.933 24.5928C31.9999 25.0683 31.6651 25.4701 31.1896 25.5438L31.0556 24.7334L31.1226 25.5438H31.0556C30.9819 25.5371 30.9819 25.5371 30.915 25.5371Z" fill="#FF3F21"/>
<path d="M31.0489 25.5371C30.6404 25.5371 30.2385 25.1956 30.2385 24.7937C30.1716 24.3182 30.5801 23.9164 30.982 23.8427C31.4575 23.7757 31.866 24.0436 31.933 24.5191C32 24.9946 31.7321 25.4032 31.2565 25.4702C31.1896 25.4702 31.1226 25.4702 31.1226 25.4702C31.1159 25.5371 31.0489 25.5371 31.0489 25.5371Z" fill="#FF3F21"/>
<path d="M31.1159 25.5372C30.7073 25.5372 30.3725 25.2693 30.3055 24.7938C30.2385 24.3183 30.5734 23.9164 30.9819 23.8428C30.9819 23.8428 30.9819 23.8428 31.0489 23.8428L31.3905 25.4702H31.3235H31.2565C31.2498 25.5372 31.1829 25.5372 31.1159 25.5372Z" fill="#FF3F21"/>
<path d="M31.3168 25.5372C30.9083 25.5372 30.5734 25.2693 30.5064 24.8608C30.3725 24.3853 30.7074 23.9834 31.1159 23.8428C31.5914 23.7088 31.9933 23.9767 32.1339 24.3853C32.2678 24.8608 32 25.3363 31.5914 25.4702C31.5244 25.4702 31.5244 25.4702 31.4575 25.4702C31.4575 25.5372 31.3905 25.5372 31.3168 25.5372Z" fill="#FF3F21"/>
<path d="M31.4575 25.4702C31.1159 25.4702 30.781 25.2693 30.6471 24.8608C30.5131 24.3852 30.781 23.9097 31.1896 23.7758C31.2565 23.7758 31.2565 23.7758 31.3235 23.7088C31.7321 23.5079 32.2745 23.7088 32.4085 24.1843C32.6094 24.5929 32.4085 25.1353 31.933 25.2693C31.866 25.3363 31.7321 25.3363 31.6651 25.3363C31.5914 25.4702 31.5244 25.4702 31.4575 25.4702Z" fill="#FF3F21"/>
<path d="M31.6584 25.4033C31.3168 25.4033 31.0489 25.2024 30.915 24.8608C30.7141 24.4523 30.915 23.9098 31.3905 23.7758C31.3905 23.7758 31.3905 23.7758 31.4575 23.7758C31.866 23.508 32.4085 23.6419 32.6094 24.0437C32.8773 24.4523 32.7434 24.9948 32.3415 25.1957C32.2746 25.1957 32.2745 25.2627 32.2076 25.2627C32.1406 25.2627 32.1406 25.3296 32.0736 25.3296C32.0067 25.3296 32.0067 25.3966 31.9397 25.3966C31.8593 25.4033 31.7254 25.4033 31.6584 25.4033Z" fill="#FF3F21"/>
<path d="M31.9263 25.2692C31.6584 25.2692 31.3838 25.1352 31.1829 24.8607C30.982 24.4521 31.1159 23.9096 31.4508 23.7087C31.8593 23.4408 32.3282 23.5078 32.6027 23.9096C32.8706 24.3182 32.8037 24.787 32.4018 25.0616C32.3348 25.0616 32.3348 25.1285 32.2679 25.1285C32.2009 25.1955 32.067 25.2692 31.9263 25.2692Z" fill="#FF3F21"/>
<path d="M32.067 25.1956C31.7991 25.1956 31.5245 25.0616 31.3905 24.854C31.1226 24.4455 31.2566 23.9766 31.5914 23.702C31.933 23.4342 32.4688 23.5011 32.7434 23.836C33.0113 24.1776 32.9443 24.7133 32.6094 25.0549L32.5425 25.1219C32.4018 25.1286 32.2009 25.1956 32.067 25.1956Z" fill="#FF3F21"/>
<path d="M32.1339 25.0617C31.866 25.0617 31.6583 24.9277 31.4574 24.7201C31.1895 24.3785 31.1895 23.8427 31.5914 23.5012C31.9329 23.1596 32.4687 23.1596 32.8103 23.5012C33.1519 23.8427 33.1519 24.3785 32.8103 24.7201C32.8103 24.7201 32.7433 24.7871 32.6763 24.7871C32.5357 24.9947 32.3348 25.0617 32.1339 25.0617Z" fill="#FF3F21"/>
<path d="M32.2678 24.9947C32.0669 24.9947 31.7923 24.9277 31.6584 24.7268C31.3168 24.3852 31.3168 23.8494 31.6584 23.5079C31.9263 23.1663 32.4687 23.0993 32.8773 23.3739C33.2858 23.6418 33.2858 24.1843 33.0112 24.5928L32.9443 24.6598C32.8773 24.7268 32.8773 24.7268 32.8773 24.7268C32.7433 24.8607 32.5357 24.9947 32.2678 24.9947Z" fill="#FF3F21"/>
<path d="M32.4687 24.7268C32.2678 24.7268 32.1272 24.6599 31.9262 24.5259C31.5847 24.258 31.5177 23.7155 31.7923 23.307L32.4687 23.7825L33.1452 24.258L33.0782 24.325C33.0112 24.6599 32.7433 24.7268 32.4687 24.7268Z" fill="#FF3F21"/>
<path d="M32.5357 24.6597C32.4018 24.6597 32.1942 24.5927 32.0602 24.5257C31.6517 24.2578 31.5847 23.7154 31.8593 23.3738C32.1272 22.9652 32.6027 22.8313 33.0112 23.1059C33.4198 23.3738 33.5537 23.8493 33.2791 24.2578C33.2791 24.3248 33.2122 24.3248 33.2122 24.3918C33.0782 24.519 32.8103 24.6597 32.5357 24.6597Z" fill="#FF3F21"/>
<path d="M32.7434 24.3182C32.6094 24.3182 32.5425 24.3182 32.4018 24.2512C31.9933 24.0503 31.7924 23.5748 31.9263 23.1662V23.0993C32.0603 22.6907 32.5358 22.4228 33.0113 22.5568C33.4868 22.6907 33.6877 23.1662 33.5538 23.6417C33.5538 23.6417 33.5538 23.7087 33.4868 23.7087V23.7757C33.4198 24.1173 33.0783 24.3182 32.7434 24.3182Z" fill="#FF3F21"/>
<path d="M32.8103 24.1174C32.7433 24.1174 32.6094 24.1174 32.5424 24.0504C32.0669 23.9165 31.866 23.441 31.9999 22.9654C32.1339 22.4899 32.6094 22.222 33.0179 22.356C33.4934 22.4899 33.7613 22.9654 33.6274 23.374C33.6274 23.4409 33.6274 23.441 33.6274 23.5079C33.5537 23.8428 33.2189 24.1174 32.8103 24.1174Z" fill="#FF3F21"/>
<path d="M32.8774 23.9767C32.8104 23.9767 32.7434 23.9767 32.6764 23.9767C32.2009 23.8427 31.933 23.3672 32.067 22.9587C32.067 22.9587 32.067 22.9587 32.067 22.8917C32.134 22.4162 32.6095 22.1483 33.085 22.2153C33.5605 22.2822 33.8284 22.7577 33.7614 23.2333V23.3002V23.3672C33.5538 23.7088 33.2189 23.9767 32.8774 23.9767Z" fill="#FF3F21"/>
<path d="M34.2302 23.9097H32.8774C32.4018 23.9097 32 23.5011 32 23.0323C32 22.5568 32.4085 22.1483 32.8774 22.1483H34.2302C34.9067 22.1483 35.5161 21.6058 35.5161 20.8624V16.5962C35.5161 15.9197 34.9736 15.3772 34.2302 15.3772H32.8774C32.4018 15.3772 32 14.9687 32 14.4999C32 14.0244 32.4085 13.6158 32.8774 13.6158H34.2302C35.8577 13.6158 37.1436 14.9017 37.2105 16.4622V16.5292V20.7954C37.1436 22.5568 35.8577 23.9097 34.2302 23.9097Z" fill="#FF3F21"/>
<path d="M27.0507 23.9096H25.6978C24.0703 23.9096 22.7175 22.5567 22.7175 20.9293V16.6631C22.7175 15.0356 24.0703 13.6827 25.6978 13.6827H27.0507C27.5262 13.6827 27.9347 14.0913 27.9347 14.5601C27.9347 15.0356 27.5262 15.4374 27.0507 15.4374H25.6978C25.0214 15.4374 24.4119 15.9799 24.4119 16.7233V20.9896C24.4119 21.666 24.9544 22.2754 25.6978 22.2754H27.0507C27.5262 22.2754 27.9347 22.684 27.9347 23.1528C27.861 23.5078 27.5262 23.9096 27.0507 23.9096Z" fill="#FF3F21"/>
<path fill-rule="evenodd" clip-rule="evenodd" d="M34.0963 14.4263C33.8284 13.0734 32.6028 12.0554 31.1829 12.0554H29.4885C28.0687 12.0554 26.8497 13.0734 26.6354 14.4263C26.5685 14.5602 26.5685 14.7678 26.5685 14.9688V22.8984C26.5685 23.0994 26.5685 23.24 26.6354 23.4409V23.5079V23.5749V23.6418V23.7088V23.7758C26.6354 23.8093 26.6522 23.8428 26.6689 23.8763C26.6857 23.9097 26.7024 23.9432 26.7024 23.9767V24.0437V24.1107C26.7694 24.1843 26.8363 24.3183 26.9033 24.4522L26.9033 24.4522L26.9703 24.5192L27.0373 24.5862L27.1042 24.6531C27.1042 24.7201 27.1042 24.7201 27.1712 24.7871L27.2382 24.8541L27.3052 24.921C27.3386 24.921 27.3554 24.9378 27.3721 24.9545C27.3889 24.9713 27.4056 24.988 27.4391 24.988L27.5061 25.055L27.5731 25.122H27.64L27.707 25.1889L27.774 25.2559C27.8409 25.2559 27.9079 25.3229 27.9079 25.3229C27.9414 25.3229 27.9582 25.3396 27.9749 25.3564C27.9916 25.3731 28.0084 25.3899 28.0419 25.3899C28.0754 25.3899 28.0921 25.4066 28.1088 25.4233C28.1256 25.4401 28.1423 25.4568 28.1758 25.4568C28.2543 25.4568 28.3098 25.4798 28.3557 25.4988C28.3882 25.5123 28.416 25.5238 28.4437 25.5238C28.5107 25.5908 28.5107 25.5908 28.5777 25.5908H28.6446H28.7116H28.7786H28.9125H28.9795H29.0465H29.1804H30.8749C30.8749 25.5908 30.9418 25.5238 31.7522 25.3229H31.8192H31.8862H32.0201H32.0871H32.154H32.221C32.288 25.2559 32.288 25.2559 32.355 25.2559C32.4219 25.2559 32.5559 25.2559 32.6229 25.1889C32.6563 25.1889 32.6731 25.1722 32.6898 25.1554C32.7066 25.1387 32.7233 25.122 32.7568 25.122C32.7903 25.122 32.807 25.1052 32.8238 25.0885C32.8405 25.0717 32.8573 25.055 32.8908 25.055C32.9242 25.055 32.941 25.0382 32.9577 25.0215C32.9745 25.0048 32.9912 24.988 33.0247 24.988L33.0917 24.921L33.1586 24.8541H33.2256L33.2926 24.7871L33.3596 24.7201C33.3596 24.7201 33.3596 24.6531 33.4265 24.6531L33.4935 24.5862L33.5605 24.5192C33.5605 24.4522 33.6275 24.3853 33.6275 24.3853L33.6944 24.3183C33.7614 24.3183 33.7614 24.2513 33.7614 24.2513L33.8284 24.1843C33.8953 24.0438 33.9623 23.9099 34.0292 23.776L34.0293 23.7758V23.7088V23.6418C34.0963 23.5749 34.0963 23.5749 34.0963 23.5079V23.4409V23.3673V23.3003V23.2333V23.1663C34.1633 22.9654 34.1633 22.8248 34.1633 22.6239V22.6238V14.9688V14.9688C34.1633 14.8348 34.1633 14.6272 34.0963 14.4263ZM29.9639 23.5548H29.897C29.3791 23.5548 28.1289 23.3844 28.1289 22.6708V22.6038V22.3359V14.6808V14.413C28.2628 13.8035 28.7383 13.395 29.3478 13.395H31.0422C31.6517 13.395 32.1272 13.8035 32.2611 14.413V14.6808V22.3893C32.2611 23.5566 30.5916 23.5553 29.997 23.5549C29.9856 23.5549 29.9745 23.5548 29.9639 23.5548Z" fill="#FF3F21"/>
<path d="M37.1435 29.8034H13.4349C12.9594 29.8034 12.5508 29.3948 12.5508 28.9193C12.5508 28.4438 12.9594 28.0353 13.3612 28.0353H37.0766C37.5521 28.0353 37.9539 28.4438 37.9539 28.9193C38.0276 29.4015 37.619 29.8034 37.1435 29.8034Z" fill="#FF3F21"/>
<path d="M40.5324 29.8034H39.655C39.1795 29.8034 38.771 29.3948 38.771 28.9193C38.771 28.4438 39.1795 28.0353 39.655 28.0353H40.5324C41.0079 28.0353 41.4098 28.4438 41.4098 28.9193C41.4165 29.4015 41.0079 29.8034 40.5324 29.8034Z" fill="#FF3F21"/>
<path d="M30.031 45.3882C28.0686 45.3882 26.2336 44.5108 24.8137 42.8834C23.4609 41.3899 22.7108 39.3606 22.7108 37.3982C22.7108 36.9227 23.1193 36.5209 23.5948 36.5209C24.0703 36.5209 24.4789 36.9294 24.4789 37.3982C24.4789 40.6531 27.1913 43.6335 30.1716 43.6335C30.6471 43.6335 31.0557 44.042 31.0557 44.5175C30.915 44.9796 30.5065 45.3882 30.031 45.3882Z" fill="#FF3F21"/>
<path d="M31.3905 53.0433H28.6781C28.2696 53.0433 27.9347 52.7754 27.8677 52.3668L27.0573 48.844C26.18 48.5761 25.2959 48.2346 24.4855 47.759L21.4382 49.7214C21.0967 49.9223 20.6948 49.8553 20.3533 49.5874L18.4579 47.6921C18.19 47.4242 18.1164 46.9487 18.324 46.6071L20.2863 43.5598C19.8108 42.7494 19.4759 41.8654 19.2013 40.988L15.6718 40.1709C15.2633 40.104 14.9954 39.7624 14.9954 39.3606V37.3982C14.9954 36.9227 15.4039 36.5209 15.8727 36.5209C16.3483 36.5209 16.7501 36.9294 16.7501 37.3982V38.6841L20.139 39.4275C20.4805 39.4945 20.6814 39.7691 20.7484 40.037C21.0163 41.122 21.4249 42.14 21.9673 43.0173C22.1683 43.2852 22.1683 43.6268 21.9673 43.8947L20.139 46.942L21.09 47.893L24.0033 46.0646C24.2712 45.8637 24.6128 45.8637 24.8807 46.0646C25.8317 46.6741 26.843 47.0826 27.861 47.2835C28.2026 47.3505 28.4035 47.6251 28.4705 47.893L29.2139 51.2818H30.5667L31.3102 47.893C31.3771 47.5514 31.6517 47.3505 31.9196 47.2835C33.0046 47.0156 34.0226 46.6071 34.8999 46.0646C35.1678 45.8637 35.5094 45.8637 35.7773 46.0646L38.6906 47.893L39.6417 46.942L37.8133 44.0286C37.6124 43.7607 37.6124 43.4192 37.8133 43.1513C38.4227 42.2002 38.8313 41.1889 39.0322 40.1709C39.0992 39.8294 39.3738 39.6284 39.6417 39.5615L43.0305 38.8181V37.5322C43.0305 37.0567 43.4391 36.6481 43.9146 36.6481C44.3901 36.6481 44.7919 37.0567 44.7919 37.5322V39.4945C44.7919 39.903 44.524 40.2379 44.1155 40.3049L40.8606 40.9813C40.5927 41.8654 40.2511 42.7427 39.7756 43.5531L41.7379 46.6004C41.9389 46.942 41.8719 47.3438 41.604 47.6854L39.7086 49.5807C39.4407 49.8486 38.9652 49.9223 38.6237 49.7147L35.5764 47.7523C34.766 48.2279 33.8819 48.5627 33.0046 48.8373L32.1942 52.3601C32.1339 52.7084 31.7924 53.0433 31.3905 53.0433Z" fill="#FF3F21"/>
<path d="M30.0309 41.5974C28.0686 41.5974 26.4412 39.97 26.4412 38.0076C26.4412 37.7397 26.4412 37.4651 26.5081 37.1972C26.6421 36.7217 27.0506 36.4538 27.5261 36.5878C28.0016 36.7217 28.2695 37.1303 28.1356 37.6058C28.1356 37.7397 28.0686 37.8737 28.0686 38.0143C28.0686 39.0323 28.879 39.9097 29.964 39.9097C30.982 39.9097 31.8593 39.0993 31.8593 38.0143C31.8593 37.8804 31.8593 37.7464 31.7924 37.6058C31.6584 37.1303 31.9933 36.7284 32.4018 36.5878C32.8773 36.4538 33.2792 36.7887 33.4198 37.1972C33.4868 37.4651 33.4868 37.7397 33.4868 38.0076C33.6207 39.97 32 41.5974 30.0309 41.5974Z" fill="#FF3F21"/>
<path d="M49.5604 36.1659C49.5604 36.9034 48.3513 37.5054 46.8699 37.5054H12.7366C11.2551 37.5054 10.046 36.9034 10.046 36.1659" fill="#FF3F21"/>
<path d="M10.046 33.4869C10.046 32.7494 11.2549 32.1475 12.7361 32.1475H46.8703C48.3515 32.1475 49.5604 32.7494 49.5604 33.4869" fill="#FF3F21"/>
</g>
<defs>
<clipPath id="clip0_1_186">
<rect width="39.8359" height="40.9878" fill="white" transform="translate(10.046 12.0553)"/>
</clipPath>
</defs>
</svg>
