<svg width="64" height="63" viewBox="0 0 64 63" fill="none" xmlns="http://www.w3.org/2000/svg">
<rect x="3.01382" y="0.334868" width="60.2762" height="60.2762" fill="#F8F7F6" stroke="#2B2B2B" stroke-width="0.669736"/>
<rect x="0.334868" y="2.34415" width="60.2762" height="60.2762" fill="#FFE4D4" stroke="#2B2B2B" stroke-width="0.669736"/>
<circle cx="30.9676" cy="27.9545" r="7.86363" stroke="#FD5B00" stroke-width="2"/>
<path d="M17.6038 25.0525C17.9488 21.7182 19.5277 18.6332 22.0307 16.4034C24.5336 14.1736 27.7797 12.9601 31.1316 13.001C34.4834 13.0419 37.6989 14.3344 40.1467 16.6247C42.5944 18.9149 44.0976 22.0375 44.361 25.3792" stroke="#FD5B00" stroke-width="2"/>
<mask id="path-5-inside-1_25_1811" fill="white">
<path d="M34.9212 41.8618C36.8969 41.3217 38.7322 40.3601 40.3008 39.0431C41.8695 37.7261 43.1342 36.0849 44.0081 34.2325L42.4742 33.5089C41.7049 35.1398 40.5914 36.5847 39.2103 37.7442C37.8293 38.9037 36.2134 39.7503 34.474 40.2258L34.9212 41.8618Z"/>
</mask>
<path d="M34.9212 41.8618C36.8969 41.3217 38.7322 40.3601 40.3008 39.0431C41.8695 37.7261 43.1342 36.0849 44.0081 34.2325L42.4742 33.5089C41.7049 35.1398 40.5914 36.5847 39.2103 37.7442C37.8293 38.9037 36.2134 39.7503 34.474 40.2258L34.9212 41.8618Z" stroke="#FD5B00" stroke-width="4" mask="url(#path-5-inside-1_25_1811)"/>
<rect x="15" y="25.1558" width="4.07792" height="9.14285" rx="2.03896" stroke="#FD5B00" stroke-width="2"/>
<rect x="42.8572" y="25.1558" width="4.07792" height="9.14285" rx="2.03896" stroke="#FD5B00" stroke-width="2"/>
<rect x="31.1079" y="42.3699" width="1.41562" height="3.6177" rx="0.70781" transform="rotate(-95.2831 31.1079 42.3699)" stroke="#FD5B00" stroke-width="1.41562"/>
<path d="M24.1606 37.3247C22.5126 38.2708 18.9002 40.8338 17.6345 43.5173C16.3688 46.2008 16.448 49.6239 16.6457 51H45.3211C45.3871 49.6239 45.7167 44.6354 44.3323 42.2272C43.3831 40.5758 41.5637 38.3568 41.5637 38.3568" stroke="#FD5B00" stroke-width="2" stroke-linecap="round"/>
</svg>
