<svg width="63" height="62" viewBox="0 0 63 62" fill="none" xmlns="http://www.w3.org/2000/svg">
<rect x="2.93967" y="0.32663" width="58.7935" height="58.7935" fill="#F8F7F6" stroke="#2B2B2B" stroke-width="0.653261"/>
<rect x="0.32663" y="2.28641" width="58.7935" height="58.7935" fill="#FFC9D2" stroke="#2B2B2B" stroke-width="0.653261"/>
<path d="M29.3511 51.5826C22.3708 51.5826 14.3579 50.4018 14.3579 41.1962C14.3579 37.1313 15.9762 32.6236 18.6871 29.1377C21.6581 25.3179 25.4452 23.2144 29.3511 23.2144C33.2571 23.2144 37.0441 25.3179 40.0152 29.1377C42.7261 32.623 44.3443 37.1313 44.3443 41.1962C44.3443 50.4023 36.3315 51.5826 29.3511 51.5826ZM29.3511 24.8035C21.9166 24.8035 15.9298 33.7715 15.9298 41.1968C15.9298 47.3631 19.944 49.9946 29.3511 49.9946C38.7588 49.9946 42.7724 47.3636 42.7724 41.1968C42.7724 33.7715 36.7856 24.8035 29.3511 24.8035Z" fill="#FF3F21"/>
<path d="M33.603 24.4359H25.0988C23.7273 24.4359 22.6118 23.3079 22.6118 21.9219V21.3875C22.6118 20.0014 23.7273 18.874 25.0988 18.874H33.603C34.9745 18.874 36.0901 20.0014 36.0901 21.3875V21.9219C36.0901 23.3079 34.9745 24.4359 33.603 24.4359ZM25.0993 20.4626C24.5946 20.4626 24.1842 20.8773 24.1842 21.3875V21.9219C24.1842 22.432 24.5946 22.8473 25.0993 22.8473H33.603C34.1078 22.8473 34.5183 22.432 34.5183 21.9219V21.3875C34.5183 20.8773 34.1078 20.4626 33.603 20.4626H25.0993Z" fill="#0757A0"/>
<path fill-rule="evenodd" clip-rule="evenodd" d="M25.0988 24.4359H33.603C34.9745 24.4359 36.0901 23.3079 36.0901 21.9219V21.3875C36.0901 20.0014 34.9745 18.874 33.603 18.874H25.0988C23.7273 18.874 22.6118 20.0014 22.6118 21.3875V21.9219C22.6118 23.3079 23.7273 24.4359 25.0988 24.4359ZM24.184 21.3875C24.184 20.8773 24.5944 20.4625 25.0992 20.4625H33.6029C34.1077 20.4625 34.5181 20.8773 34.5181 21.3875V21.9218C34.5181 22.432 34.1077 22.8473 33.6029 22.8473H25.0992C24.5944 22.8473 24.184 22.432 24.184 21.9218V21.3875Z" fill="#FF3F21"/>
<path d="M34.1397 20.2503H24.9942C24.6456 20.2503 24.3391 20.0186 24.2405 19.6803L23.2933 16.4337C23.0119 15.47 23.3056 14.4642 24.0587 13.8081C24.8119 13.152 25.8401 13.0071 26.7414 13.4321L29.649 14.7988L32.3557 13.493C33.2581 13.0572 34.291 13.194 35.0517 13.8496C35.8123 14.5052 36.1091 15.5147 35.8266 16.4838L34.8939 19.6803C34.7947 20.0181 34.4883 20.2503 34.1397 20.2503ZM25.5816 18.6617H33.5517L34.3182 16.0351C34.4248 15.6704 34.3172 15.3057 34.0309 15.059C33.7452 14.8128 33.3716 14.7632 33.0326 14.927L29.9918 16.3944C29.7796 16.4967 29.5339 16.4972 29.3217 16.3976L26.0783 14.8731C25.7388 14.7137 25.3673 14.7664 25.0843 15.0126C24.8012 15.2593 24.6952 15.623 24.8007 15.9855L25.5816 18.6617Z" fill="#FF3F21"/>
<path d="M31.6953 35.9561C31.3478 35.3754 30.3596 34.9299 29.4375 34.9299C28.3288 34.9299 27.3134 35.2542 27.3134 36.1991C27.3134 37.0901 28.3688 37.2522 29.4913 37.3874C31.4422 37.6304 33.5262 37.9816 33.5262 40.3577C33.5262 42.1807 32.0167 43.2069 30.3601 43.3286V44.6785H28.6636V43.3959C27.1674 43.2607 25.7778 42.5723 25.1494 41.0871L26.726 40.4122C27.0869 41.2762 28.276 41.83 29.3847 41.83C30.5872 41.83 31.6959 41.4114 31.6959 40.3583C31.6959 39.4673 30.5872 39.143 29.3447 38.9949C27.4339 38.7789 25.5635 38.4411 25.5635 36.1996C25.5635 34.4306 27.1135 33.6204 28.663 33.4313V32.2565H30.3596V33.4313C31.4955 33.6069 32.5375 34.039 33.1388 35.2812L31.6953 35.9561Z" fill="#FF3F21"/>
</svg>
