<svg width="25" height="24" viewBox="0 0 25 24" fill="none" xmlns="http://www.w3.org/2000/svg">
<g clip-path="url(#clip0_1_581)">
<rect x="0.470001" width="24" height="24" rx="4" fill="#22D100"/>
<g clip-path="url(#clip1_1_581)">
<path fill-rule="evenodd" clip-rule="evenodd" d="M20.47 11.794C20.47 16.098 16.953 19.588 12.615 19.588C11.2881 19.5898 9.98233 19.2562 8.819 18.618L4.47 20L5.888 15.818C5.14926 14.6059 4.75928 13.2135 4.761 11.794C4.76 7.489 8.277 4 12.615 4C16.953 4 20.47 7.49 20.47 11.794ZM12.615 5.241C8.974 5.241 6.012 8.181 6.012 11.794C6.01089 13.1761 6.45169 14.5223 7.27 15.636L6.445 18.069L8.982 17.263C10.0609 17.9719 11.324 18.3487 12.615 18.347C16.257 18.347 19.219 15.407 19.219 11.794C19.219 8.181 16.257 5.241 12.615 5.241ZM16.582 13.589C16.533 13.509 16.405 13.461 16.212 13.366C16.02 13.271 15.073 12.808 14.897 12.745C14.72 12.681 14.592 12.649 14.463 12.84C14.2708 13.0985 14.0673 13.3485 13.853 13.589C13.741 13.717 13.629 13.732 13.437 13.637C13.244 13.541 12.624 13.34 11.888 12.689C11.4678 12.3034 11.1072 11.8575 10.818 11.366C10.705 11.175 10.805 11.071 10.902 10.976C10.988 10.89 11.094 10.753 11.191 10.642C11.287 10.53 11.319 10.451 11.383 10.323C11.447 10.195 11.415 10.084 11.367 9.988C11.319 9.893 10.934 8.953 10.773 8.57C10.613 8.188 10.453 8.252 10.34 8.252C10.228 8.252 10.1 8.236 9.971 8.236C9.87368 8.23854 9.77791 8.26106 9.68966 8.30218C9.60141 8.34329 9.52255 8.40212 9.458 8.475C9.281 8.665 8.784 9.128 8.784 10.068C8.784 11.008 9.474 11.916 9.57 12.044C9.666 12.171 10.902 14.163 12.859 14.928C14.817 15.692 14.817 15.438 15.169 15.405C15.522 15.374 16.309 14.944 16.469 14.497C16.629 14.051 16.629 13.668 16.582 13.589Z" fill="white"/>
</g>
</g>
<defs>
<clipPath id="clip0_1_581">
<rect x="0.470001" width="24" height="24" rx="4" fill="white"/>
</clipPath>
<clipPath id="clip1_1_581">
<rect width="24" height="24" fill="white" transform="translate(0.470001)"/>
</clipPath>
</defs>
</svg>
