<svg width="25" height="24" viewBox="0 0 25 24" fill="none" xmlns="http://www.w3.org/2000/svg">
<g clip-path="url(#clip0_1_573)">
<rect x="0.470001" width="24" height="24" rx="4" fill="#8D00FF"/>
<g clip-path="url(#clip1_1_573)">
<path fill-rule="evenodd" clip-rule="evenodd" d="M18.904 15.574C18.42 15.183 17.902 14.831 17.393 14.472C16.377 13.754 15.448 13.699 14.69 14.852C14.264 15.5 13.669 15.529 13.046 15.244C11.328 14.462 10.002 13.255 9.225 11.501C8.881 10.724 8.885 10.028 9.69 9.47903C10.115 9.18903 10.544 8.84503 10.51 8.21103C10.465 7.38303 8.467 4.61803 7.678 4.32603C7.36034 4.20954 7.01166 4.20954 6.694 4.32603C4.843 4.95003 4.076 6.48003 4.81 8.29203C7 13.697 10.853 17.459 16.159 19.755C16.461 19.885 16.797 19.938 16.967 19.985C18.175 19.997 19.59 18.827 19.999 17.667C20.392 16.55 19.562 16.107 18.904 15.574ZM12.955 4.88003C16.834 5.48003 18.623 7.33403 19.117 11.26C19.162 11.623 19.027 12.169 19.543 12.179C20.081 12.189 19.951 11.651 19.956 11.289C20.001 7.59003 16.793 4.16203 13.068 4.03603C12.787 4.07603 12.205 3.84103 12.168 4.47403C12.144 4.90103 12.634 4.83103 12.955 4.88003Z" fill="white"/>
<path fill-rule="evenodd" clip-rule="evenodd" d="M13.714 5.95697C13.341 5.91197 12.849 5.73497 12.761 6.25597C12.671 6.80197 13.219 6.74597 13.572 6.82597C15.967 7.36397 16.802 8.23997 17.196 10.628C17.253 10.977 17.139 11.518 17.728 11.428C18.164 11.362 18.006 10.898 18.043 10.626C18.063 8.33297 16.107 6.24597 13.714 5.95697Z" fill="white"/>
<path fill-rule="evenodd" clip-rule="evenodd" d="M13.934 7.83193C13.685 7.83793 13.441 7.86493 13.349 8.13193C13.212 8.53193 13.501 8.62793 13.795 8.67593C14.778 8.83393 15.295 9.41593 15.393 10.4009C15.42 10.6689 15.588 10.8849 15.845 10.8549C16.201 10.8119 16.234 10.4939 16.223 10.1909C16.24 9.08493 14.996 7.80593 13.934 7.83193Z" fill="white"/>
</g>
</g>
<defs>
<clipPath id="clip0_1_573">
<rect x="0.470001" width="24" height="24" rx="4" fill="white"/>
</clipPath>
<clipPath id="clip1_1_573">
<rect width="24" height="24" fill="white" transform="translate(0.470001)"/>
</clipPath>
</defs>
</svg>
