<svg width="25" height="24" viewBox="0 0 25 24" fill="none" xmlns="http://www.w3.org/2000/svg">
<g clip-path="url(#clip0_1_563)">
<rect x="0.470001" width="24" height="24" rx="4" fill="#FF6B00"/>
<g clip-path="url(#clip1_1_563)">
<path fill-rule="evenodd" clip-rule="evenodd" d="M15.3 10.7699C14.9328 11.1392 14.4962 11.4324 14.0154 11.6324C13.5345 11.8324 13.0188 11.9354 12.498 11.9354C11.9772 11.9354 11.4615 11.8324 10.9806 11.6324C10.4998 11.4324 10.0632 11.1392 9.696 10.7699C9.32664 10.4027 9.03353 9.96612 8.83352 9.48524C8.6335 9.00437 8.53053 8.4887 8.53053 7.96789C8.53053 7.44707 8.6335 6.9314 8.83352 6.45053C9.03353 5.96965 9.32664 5.53307 9.696 5.16588C10.0631 4.79641 10.4997 4.50319 10.9806 4.3031C11.4614 4.10301 11.9771 4 12.498 4C13.0188 4 13.5346 4.10301 14.0154 4.3031C14.4963 4.50319 14.9329 4.79641 15.3 5.16588C15.6694 5.53307 15.9625 5.96965 16.1625 6.45053C16.3625 6.9314 16.4655 7.44707 16.4655 7.96789C16.4655 8.4887 16.3625 9.00437 16.1625 9.48524C15.9625 9.96612 15.6694 10.4027 15.3 10.7699ZM12.498 6.15489C12.004 6.15489 11.556 6.35489 11.227 6.68489C11.0592 6.85129 10.926 7.04928 10.8351 7.26743C10.7442 7.48557 10.6974 7.71956 10.6974 7.95588C10.6974 8.19221 10.7442 8.4262 10.8351 8.64434C10.926 8.86249 11.0592 9.06048 11.227 9.22689C11.3934 9.39496 11.5914 9.52839 11.8096 9.61945C12.0279 9.71051 12.262 9.75739 12.4985 9.75739C12.735 9.75739 12.9691 9.71051 13.1874 9.61945C13.4056 9.52839 13.6036 9.39496 13.77 9.22689C13.9381 9.06053 14.0715 8.8625 14.1626 8.64425C14.2536 8.426 14.3005 8.19187 14.3005 7.95539C14.3005 7.7189 14.2536 7.48477 14.1626 7.26652C14.0715 7.04827 13.9381 6.85024 13.77 6.68389C13.4307 6.34904 12.9747 6.15901 12.498 6.15388V6.15489ZM16.666 11.9469L17.832 13.5369C17.891 13.6189 17.879 13.7249 17.796 13.7839C16.819 14.5839 15.677 15.1139 14.488 15.3969L16.737 19.7289C16.796 19.8589 16.713 19.9999 16.572 19.9999H14.17C14.1327 19.998 14.0967 19.986 14.0657 19.9653C14.0347 19.9445 14.0099 19.9157 13.994 19.8819L12.498 16.3029L10.991 19.8699C10.9778 19.9056 10.9537 19.9362 10.9221 19.9573C10.8905 19.9785 10.853 19.9892 10.815 19.9879H8.413C8.272 19.9879 8.189 19.8349 8.248 19.7179L10.497 15.3969C9.28708 15.1148 8.15637 14.5634 7.189 13.7839C7.118 13.7239 7.094 13.6069 7.153 13.5359L8.319 11.9469C8.389 11.8529 8.507 11.8409 8.589 11.9119C9.685 12.8419 11.039 13.4539 12.487 13.4539C13.935 13.4539 15.277 12.8539 16.384 11.9119C16.478 11.8419 16.607 11.8519 16.666 11.9469Z" fill="white"/>
</g>
</g>
<defs>
<clipPath id="clip0_1_563">
<rect x="0.470001" width="24" height="24" rx="4" fill="white"/>
</clipPath>
<clipPath id="clip1_1_563">
<rect width="24" height="24" fill="white" transform="translate(0.470001)"/>
</clipPath>
</defs>
</svg>
