<svg width="25" height="24" viewBox="0 0 25 24" fill="none" xmlns="http://www.w3.org/2000/svg">
<g clip-path="url(#clip0_1_568)">
<rect x="0.470001" width="24" height="24" rx="4" fill="#168DE2"/>
<g clip-path="url(#clip1_1_568)">
<path fill-rule="evenodd" clip-rule="evenodd" d="M9.359 9.667C9.71267 9.667 10.0518 9.52651 10.3019 9.27643C10.552 9.02635 10.6925 8.68717 10.6925 8.3335C10.6925 7.97983 10.552 7.64065 10.3019 7.39057C10.0518 7.14049 9.71267 7 9.359 7C9.00533 7 8.66615 7.14049 8.41607 7.39057C8.16599 7.64065 8.0255 7.97983 8.0255 8.3335C8.0255 8.68717 8.16599 9.02635 8.41607 9.27643C8.66615 9.52651 9.00533 9.667 9.359 9.667ZM15.581 9.667C15.9347 9.667 16.2738 9.52651 16.5239 9.27643C16.774 9.02635 16.9145 8.68717 16.9145 8.3335C16.9145 7.97983 16.774 7.64065 16.5239 7.39057C16.2738 7.14049 15.9347 7 15.581 7C15.2273 7 14.8882 7.14049 14.6381 7.39057C14.388 7.64065 14.2475 7.97983 14.2475 8.3335C14.2475 8.68717 14.388 9.02635 14.6381 9.27643C14.8882 9.52651 15.2273 9.667 15.581 9.667ZM20.351 15.775L18.549 12.747C18.4301 12.551 18.2394 12.4093 18.0174 12.3519C17.7955 12.2946 17.56 12.3262 17.361 12.44C17.2628 12.495 17.1767 12.569 17.1075 12.6578C17.0384 12.7466 16.9878 12.8483 16.9587 12.957C16.9295 13.0657 16.9224 13.1791 16.9377 13.2905C16.953 13.402 16.9906 13.5093 17.048 13.606L17.262 13.966C16.6355 14.6006 15.8888 15.104 15.0655 15.4468C14.2421 15.7895 13.3588 15.9646 12.467 15.962C11.576 15.9647 10.6934 15.7899 9.87066 15.4479C9.04792 15.1059 8.30152 14.6035 7.675 13.97L7.892 13.606C7.94931 13.5092 7.9867 13.402 8.00198 13.2905C8.01725 13.1791 8.01009 13.0657 7.98093 12.9571C7.95177 12.8485 7.9012 12.7468 7.83217 12.658C7.76315 12.5692 7.67707 12.4951 7.579 12.44C7.38001 12.3256 7.14414 12.2937 6.9219 12.3511C6.69966 12.4084 6.50873 12.5506 6.39 12.747L4.59 15.775C4.53265 15.8717 4.4952 15.9789 4.47985 16.0903C4.46451 16.2017 4.47158 16.315 4.50064 16.4237C4.52971 16.5323 4.58018 16.634 4.64911 16.7228C4.71803 16.8117 4.80401 16.8858 4.902 16.941C5.10111 17.0549 5.33681 17.0865 5.5589 17.0292C5.78099 16.9718 5.97191 16.83 6.091 16.634L6.774 15.487C8.33538 16.8956 10.3651 17.6727 12.468 17.667C14.5728 17.6729 16.6043 16.8942 18.166 15.483L18.851 16.634C18.9688 16.8314 19.1598 16.9744 19.3824 17.0319C19.605 17.0894 19.8413 17.0567 20.04 16.941C20.138 16.8858 20.224 16.8117 20.2929 16.7228C20.3618 16.634 20.4123 16.5323 20.4414 16.4237C20.4704 16.315 20.4775 16.2017 20.4621 16.0903C20.4468 15.9789 20.4084 15.8717 20.351 15.775Z" fill="white"/>
</g>
</g>
<defs>
<clipPath id="clip0_1_568">
<rect x="0.470001" width="24" height="24" rx="4" fill="white"/>
</clipPath>
<clipPath id="clip1_1_568">
<rect width="24" height="24" fill="white" transform="translate(0.470001)"/>
</clipPath>
</defs>
</svg>
