<svg width="25" height="24" viewBox="0 0 25 24" fill="none" xmlns="http://www.w3.org/2000/svg">
<g clip-path="url(#clip0_1_586)">
<rect x="0.470001" width="24" height="24" rx="4" fill="#008BBF"/>
<g clip-path="url(#clip1_1_586)">
<path fill-rule="evenodd" clip-rule="evenodd" d="M20.007 13.698C20.122 13.178 20.183 12.638 20.183 12.084C20.183 7.92901 16.768 4.56001 12.553 4.56001C12.109 4.56001 11.673 4.59801 11.249 4.67001C10.5425 4.23074 9.72691 3.9986 8.895 4.00001C6.451 4.00001 4.47 5.95401 4.47 8.36401C4.47 9.16901 4.692 9.92401 5.078 10.571C4.9747 11.0687 4.92276 11.5757 4.923 12.084C4.923 16.24 8.339 19.484 12.553 19.484C13.03 19.484 13.497 19.44 13.95 19.358C14.573 19.688 15.285 20 16.042 20C18.486 20 20.467 18.047 20.467 15.636C20.4675 14.9629 20.3099 14.2991 20.007 13.698ZM16.033 15.155C15.739 15.573 15.308 15.902 14.74 16.139C14.173 16.377 13.501 16.495 12.724 16.495C11.791 16.495 11.022 16.333 10.416 16.009C9.99777 15.7853 9.63887 15.4651 9.369 15.075C9.101 14.685 8.966 14.307 8.966 13.938C8.966 13.725 9.046 13.543 9.208 13.391C9.29038 13.3142 9.38712 13.2545 9.49266 13.2152C9.5982 13.1759 9.71046 13.1578 9.823 13.162C10.0097 13.1564 10.192 13.2198 10.335 13.34C10.475 13.459 10.595 13.634 10.693 13.867C10.813 14.145 10.943 14.377 11.083 14.562C11.222 14.747 11.419 14.902 11.672 15.022C11.926 15.142 12.259 15.202 12.672 15.202C13.238 15.202 13.699 15.082 14.054 14.838C14.408 14.595 14.586 14.291 14.586 13.928C14.5909 13.7973 14.5678 13.6671 14.5183 13.546C14.4688 13.425 14.394 13.3159 14.299 13.226C14.0866 13.034 13.8332 12.8931 13.558 12.814C13.1577 12.6938 12.7519 12.5927 12.342 12.511C11.664 12.365 11.095 12.193 10.639 11.998C10.181 11.802 9.817 11.535 9.549 11.198C9.28 10.858 9.146 10.439 9.146 9.93801C9.146 9.45801 9.288 9.03401 9.572 8.66301C9.855 8.29101 10.265 8.00501 10.802 7.80501C11.339 7.60501 11.972 7.50601 12.697 7.50601C13.277 7.50601 13.779 7.57201 14.202 7.70401C14.625 7.83701 14.976 8.01301 15.255 8.23201C15.535 8.45201 15.739 8.68201 15.867 8.92301C15.997 9.16301 16.061 9.40001 16.061 9.62801C16.061 9.83801 15.981 10.028 15.82 10.195C15.7429 10.2771 15.6493 10.342 15.5454 10.3854C15.4415 10.4288 15.3296 10.4498 15.217 10.447C14.997 10.447 14.831 10.397 14.717 10.296C14.603 10.195 14.48 10.03 14.347 9.80101C14.1997 9.50283 13.9888 9.24065 13.729 9.03301C13.488 8.84901 13.102 8.75701 12.569 8.75701C12.075 8.75701 11.676 8.85701 11.373 9.05701C11.07 9.25601 10.918 9.49701 10.918 9.77701C10.918 9.95001 10.971 10.101 11.073 10.227C11.176 10.355 11.318 10.462 11.499 10.553C11.679 10.644 11.862 10.715 12.046 10.767C12.231 10.819 12.536 10.893 12.962 10.992C13.4498 11.0953 13.9324 11.2221 14.408 11.372C14.84 11.51 15.208 11.679 15.511 11.875C15.813 12.073 16.051 12.325 16.22 12.627C16.39 12.929 16.475 13.3 16.475 13.738C16.475 14.263 16.327 14.736 16.033 15.155Z" fill="white"/>
</g>
</g>
<defs>
<clipPath id="clip0_1_586">
<rect x="0.470001" width="24" height="24" rx="4" fill="white"/>
</clipPath>
<clipPath id="clip1_1_586">
<rect width="24" height="24" fill="white" transform="translate(0.470001)"/>
</clipPath>
</defs>
</svg>
