<svg width="230" height="26" viewBox="0 0 230 26" fill="none" xmlns="http://www.w3.org/2000/svg">
<g clip-path="url(#clip0_1_16)">
<path d="M84.6248 24.5358V13.4118V2.28784H91.7936H98.9624V7.89103V13.4942L102.918 7.89103L106.873 2.28784H114.042H121.21V13.4118V24.5358H114.124H107.038V18.9326V13.3294L103 18.9326L98.9624 24.5358H91.876H84.6248Z" fill="#2B2B2B"/>
<path d="M50.5112 10.2808V6.40795V2.37036H65.8376H81.164V6.40795V10.4456H77.044H72.924V17.532V24.6184H65.8376H58.7512V17.4496V10.3632H54.6312H50.5112V10.2808Z" fill="#2B2B2B"/>
<path d="M0.0823975 24.5358V13.3294V2.28784H9.47599H18.8696L21.3416 6.90225C22.66 9.45664 23.8136 11.5166 23.8136 11.5166C23.8136 11.5166 25.0496 9.45664 26.4504 6.90225L29.0872 2.28784H38.1512H47.2152V13.3294V24.371H40.1288H33.0424V18.8502C33.0424 13.5766 33.0424 13.3294 32.8776 13.5766C32.7952 13.659 31.3944 16.131 29.7464 19.0974L26.78 24.371H23.3192H19.8584L16.8096 18.8502L13.7608 13.3294V18.8502V24.371H6.92158H0.0823975V24.5358Z" fill="#2B2B2B"/>
<path d="M129.698 2.37036H131.84L133.57 5.41915L135.301 2.37036H137.443V7.23195H135.96V3.85354L134.065 7.23195H133.241L131.346 3.85354V7.23195H129.862V2.37036H129.698Z" fill="#2B2B2B"/>
<path d="M141.563 2.20557C144.612 2.20557 145.024 3.77117 145.024 4.59517V4.75997C145.024 5.58397 144.694 7.23197 141.563 7.23197H141.316C138.185 7.23197 137.855 5.66637 137.855 4.75997V4.59517C137.855 3.68877 138.185 2.20557 141.316 2.20557H141.563ZM143.376 4.67757C143.376 4.10077 143.046 3.35917 141.398 3.35917C139.75 3.35917 139.421 4.10077 139.421 4.67757V4.75997C139.421 5.33677 139.75 6.07838 141.398 6.07838C143.046 6.07838 143.376 5.33677 143.376 4.75997V4.67757Z" fill="#2B2B2B"/>
<path d="M148.485 7.31425C145.683 7.31425 145.189 5.74865 145.189 4.84225V4.67743C145.189 3.77103 145.601 2.28784 148.485 2.28784H148.732C151.534 2.28784 152.028 3.60623 152.028 4.18303V4.26543H150.38C150.38 4.10063 150.133 3.44143 148.567 3.44143C147.084 3.44143 146.754 4.10063 146.754 4.67743V4.75984C146.754 5.33664 147.166 6.07825 148.567 6.07825C150.133 6.07825 150.298 5.33664 150.38 5.17184H152.028V5.25425C152.028 5.91345 151.534 7.23184 148.732 7.23184H148.485V7.31425Z" fill="#2B2B2B"/>
<path d="M154.006 4.92476V7.23195H152.44V2.37036H154.006V4.43036L156.478 2.37036H158.455L155.654 4.59514L158.62 7.23195H156.642L154.006 4.92476Z" fill="#2B2B2B"/>
<path d="M161.751 2.20557C164.8 2.20557 165.212 3.77117 165.212 4.59517V4.75997C165.212 5.58397 164.882 7.23197 161.751 7.23197H161.504C158.373 7.23197 158.043 5.66637 158.043 4.75997V4.59517C158.043 3.68877 158.373 2.20557 161.504 2.20557H161.751ZM163.564 4.67757C163.564 4.10077 163.234 3.35917 161.586 3.35917C159.938 3.35917 159.609 4.10077 159.609 4.67757V4.75997C159.609 5.33677 159.938 6.07838 161.586 6.07838C163.234 6.07838 163.564 5.33677 163.564 4.75997V4.67757Z" fill="#2B2B2B"/>
<path d="M165.624 2.37036H169.826C171.227 2.37036 171.639 2.94715 171.639 3.52395V3.60636C171.639 4.26556 171.062 4.51274 170.898 4.59514C171.227 4.67754 171.969 4.92474 171.969 5.83114V5.91354C171.969 6.65514 171.557 7.31436 169.909 7.31436H165.624V2.37036ZM167.107 3.35914V4.18314H169.497C169.909 4.18314 169.991 4.01834 169.991 3.77114C169.991 3.60634 169.909 3.35914 169.497 3.35914H167.107ZM167.107 5.17195V6.16076H169.662C170.156 6.16076 170.238 5.91356 170.238 5.66636C170.238 5.41916 170.156 5.17195 169.662 5.17195H167.107Z" fill="#2B2B2B"/>
<path d="M175.347 7.31425C172.546 7.31425 172.051 5.74865 172.051 4.84225V4.67743C172.051 3.77103 172.463 2.28784 175.347 2.28784H175.594C178.396 2.28784 178.89 3.60623 178.89 4.18303V4.26543H177.242C177.242 4.10063 176.995 3.44143 175.43 3.44143C173.946 3.44143 173.617 4.10063 173.617 4.67743V4.75984C173.617 5.33664 174.029 6.07825 175.43 6.07825C176.995 6.07825 177.16 5.33664 177.242 5.17184H178.89V5.25425C178.89 5.91345 178.396 7.23184 175.594 7.23184H175.347V7.31425Z" fill="#2B2B2B"/>
<path d="M180.868 4.92476V7.23195H179.302V2.37036H180.868V4.43036L183.34 2.37036H185.318L182.516 4.59514L185.482 7.23195H183.505L180.868 4.92476Z" fill="#2B2B2B"/>
<path d="M190.426 4.01836L187.13 7.23195H185.565V2.37036H187.13V5.58395L190.426 2.37036H191.992V7.23195H190.426V4.01836Z" fill="#2B2B2B"/>
<path d="M197.43 4.0183L194.134 7.23189H192.569V2.3703H194.134V5.58389L197.43 2.3703H198.996V7.23189H197.43V4.0183ZM195.7 2.0407C194.546 2.0407 194.299 1.29908 194.299 0.969482H195.453C195.453 1.05188 195.535 1.29908 195.865 1.29908C196.194 1.29908 196.277 1.05188 196.277 0.969482H197.348C197.348 1.29908 197.018 2.0407 195.947 2.0407H195.7Z" fill="#2B2B2B"/>
<path d="M131.593 12.1758H129.45V11.0222H135.218V12.1758H133.076V15.8838H131.51V12.1758H131.593Z" fill="#2B2B2B"/>
<path d="M141.069 11.0222V12.1758H137.443V12.9174H140.986V14.071H137.443V14.895H141.151V16.0486H135.96V11.187H141.069V11.0222Z" fill="#2B2B2B"/>
<path d="M141.316 15.8838L143.788 13.4118L141.398 11.0222H143.458L144.859 12.423L146.26 11.0222H148.155L145.766 13.4118L148.155 15.8838H146.26L144.777 14.4006L143.294 15.8838H141.316Z" fill="#2B2B2B"/>
<path d="M148.485 11.0222H150.05V12.835H153.346V11.0222H154.912V15.8838H153.346V13.9886H150.05V15.8838H148.485V11.0222Z" fill="#2B2B2B"/>
<path d="M159.279 10.8574C162.328 10.8574 162.74 12.423 162.74 13.247V13.4118C162.74 14.2358 162.41 15.8838 159.279 15.8838H159.032C155.901 15.8838 155.571 14.3182 155.571 13.4118V13.247C155.571 12.3406 155.901 10.8574 159.032 10.8574H159.279ZM161.092 13.3294C161.092 12.7526 160.762 12.011 159.114 12.011C157.466 12.011 157.137 12.7526 157.137 13.3294V13.4118C157.137 13.9886 157.466 14.7302 159.114 14.7302C160.762 14.7302 161.092 13.9886 161.092 13.4118V13.3294Z" fill="#2B2B2B"/>
<path d="M167.354 12.0935H165.047C165.047 14.4831 164.882 14.8951 164.635 15.3071C164.388 15.7191 164.058 15.8839 163.234 15.8839H162.822V14.6479H162.905C163.152 14.6479 163.317 14.6479 163.399 14.4831C163.564 14.2359 163.646 13.5767 163.646 10.9399H168.92V15.8015H167.354V12.0935Z" fill="#2B2B2B"/>
<path d="M173.205 10.8574C176.254 10.8574 176.666 12.423 176.666 13.247V13.4118C176.666 14.2358 176.336 15.8838 173.205 15.8838H172.958C169.826 15.8838 169.497 14.3182 169.497 13.4118V13.247C169.497 12.3406 169.826 10.8574 172.958 10.8574H173.205ZM175.018 13.3294C175.018 12.7526 174.688 12.011 173.04 12.011C171.392 12.011 171.062 12.7526 171.062 13.3294V13.4118C171.062 13.9886 171.392 14.7302 173.04 14.7302C174.688 14.7302 175.018 13.9886 175.018 13.4118V13.3294Z" fill="#2B2B2B"/>
<path d="M177.242 11.0222H182.186V12.1758H178.808V15.8838H177.242V11.0222Z" fill="#2B2B2B"/>
<path d="M187.625 12.6702L184.329 15.8838H182.763V11.0222H184.329V14.2358L187.625 11.0222H189.19V15.8838H187.625V12.6702Z" fill="#2B2B2B"/>
<path d="M193.722 14.2358C193.31 14.3182 192.898 14.4006 192.239 14.4006C190.591 14.4006 189.685 13.9886 189.685 12.6702V11.0222H191.25V12.2582C191.25 12.9998 191.745 13.1646 192.651 13.1646C192.981 13.1646 193.393 13.1646 193.805 13.0822V11.0222H195.37V15.8838H193.805V14.2358H193.722Z" fill="#2B2B2B"/>
<path d="M201.221 11.0222V12.1758H197.595V12.9174H201.138V14.071H197.595V14.895H201.303V16.0486H196.112V11.187H201.221V11.0222Z" fill="#2B2B2B"/>
<path d="M205.094 15.9663C202.292 15.9663 201.798 14.4007 201.798 13.4943V13.3295C201.798 12.4231 202.21 10.9399 205.094 10.9399H205.341C208.142 10.9399 208.637 12.2583 208.637 12.8351V12.9175H206.989C206.989 12.7527 206.742 12.0935 205.176 12.0935C203.693 12.0935 203.363 12.7527 203.363 13.3295V13.4119C203.363 13.9887 203.775 14.7303 205.176 14.7303C206.742 14.7303 206.906 13.9887 206.989 13.8239H208.637V13.9063C208.637 14.5655 208.142 15.8839 205.341 15.8839H205.094V15.9663Z" fill="#2B2B2B"/>
<path d="M210.779 13.5766V15.8838H209.214V11.0222H210.779V13.0822L213.251 11.0222H215.229L212.427 13.247L215.394 15.8838H213.416L210.779 13.5766Z" fill="#2B2B2B"/>
<path d="M220.42 12.6702L217.124 15.8838H215.558V11.0222H217.124V14.2358L220.42 11.0222H221.986V15.8838H220.42V12.6702Z" fill="#2B2B2B"/>
<path d="M227.589 12.6704L224.293 15.884H222.727V11.0224H224.293V14.236L227.589 11.0224H229.154V15.884H227.589V12.6704ZM225.941 10.6928C224.787 10.6928 224.54 9.95118 224.54 9.62158H225.694C225.694 9.70398 225.776 9.95118 226.106 9.95118C226.435 9.95118 226.518 9.70398 226.518 9.62158H227.589C227.589 9.95118 227.259 10.6928 226.188 10.6928H225.941Z" fill="#2B2B2B"/>
<path d="M134.477 21.3223L131.181 24.5359H129.615V19.6743H131.181V22.8879L134.477 19.6743H136.042V24.5359H134.477V21.3223Z" fill="#2B2B2B"/>
<path d="M136.784 19.6743H138.35V21.4871H141.646V19.6743H143.211V24.5359H141.646V22.6407H138.35V24.5359H136.784V19.6743Z" fill="#2B2B2B"/>
<path d="M147.084 24.6182C144.282 24.6182 143.788 23.0526 143.788 22.1462V21.9814C143.788 21.075 144.2 19.5918 147.084 19.5918H147.331C150.133 19.5918 150.627 20.9102 150.627 21.487V21.5694H148.979C148.979 21.4046 148.732 20.7454 147.166 20.7454C145.683 20.7454 145.354 21.4046 145.354 21.9814V22.0638C145.354 22.6406 145.766 23.3822 147.166 23.3822C148.732 23.3822 148.897 22.6406 148.979 22.4758H150.627V22.5582C150.627 23.2174 150.133 24.5358 147.331 24.5358H147.084V24.6182Z" fill="#2B2B2B"/>
<path d="M153.017 20.8279H150.874V19.6743H156.642V20.8279H154.5V24.5359H152.934V20.8279H153.017Z" fill="#2B2B2B"/>
<path d="M162.163 21.3223L158.867 24.5359H157.302V19.6743H158.867V22.8879L162.163 19.6743H163.729V24.5359H162.163V21.3223Z" fill="#2B2B2B"/>
<path d="M166.448 20.8279H164.306V19.6743H170.074V20.8279H167.931V24.5359H166.448V20.8279Z" fill="#2B2B2B"/>
<path d="M174.111 23.3823C173.617 24.2063 173.452 24.5359 172.463 24.5359H171.474V23.3823H172.298C172.463 23.3823 172.463 23.2999 172.463 23.2999C172.463 23.2175 172.381 23.1351 172.381 23.0527L170.074 19.6743H171.886L173.37 22.0639L174.77 19.6743H176.336L174.111 23.3823Z" fill="#2B2B2B"/>
<path d="M178.643 20.8279H176.501V19.6743H182.269V20.8279H180.126V24.5359H178.561V20.8279H178.643Z" fill="#2B2B2B"/>
</g>
<defs>
<clipPath id="clip0_1_16">
<rect width="229.896" height="24.72" fill="white" transform="translate(0 0.639893)"/>
</clipPath>
</defs>
</svg>
