<svg width="279" height="29" viewBox="0 0 279 29" fill="none" xmlns="http://www.w3.org/2000/svg">
<path d="M103.44 28.6001V15.1001V1.6001H112.14H120.84V8.40009V15.2001L125.64 8.40009L130.44 1.6001H139.14H147.84V15.1001V28.6001H139.24H130.64V21.8001V15.0001L125.74 21.8001L120.84 28.6001H112.24H103.44Z" fill="white"/>
<path d="M62.0402 11.3002V6.60019V1.7002H80.6402H99.2402V6.60019V11.5002H94.2402H89.2402V20.1002V28.7002H80.6402H72.0402V20.0002V11.4002H67.0402H62.0402V11.3002Z" fill="white"/>
<path d="M0.840088 28.6001V15.0001V1.6001H12.2401H23.6401L26.6401 7.20011C28.2401 10.3001 29.6401 12.8001 29.6401 12.8001C29.6401 12.8001 31.1401 10.3001 32.8401 7.20011L36.0401 1.6001H47.0401H58.0401V15.0001V28.4001H49.4401H40.8401V21.7001C40.8401 15.3001 40.8401 15.0001 40.6401 15.3001C40.5401 15.4001 38.8401 18.4001 36.8401 22.0001L33.2401 28.4001H29.0401H24.8401L21.1401 21.7001L17.4401 15.0001V21.7001V28.4001H9.14007H0.840088V28.6001Z" fill="white"/>
<path d="M158.14 1.7002H160.74L162.84 5.40018L164.94 1.7002H167.54V7.60019H165.74V3.50018L163.44 7.60019H162.44L160.14 3.50018V7.60019H158.34V1.7002H158.14Z" fill="white"/>
<path d="M172.54 1.5C176.24 1.5 176.74 3.4 176.74 4.4V4.60001C176.74 5.60001 176.34 7.60001 172.54 7.60001H172.24C168.44 7.60001 168.04 5.70001 168.04 4.60001V4.4C168.04 3.3 168.44 1.5 172.24 1.5H172.54ZM174.74 4.5C174.74 3.8 174.34 2.9 172.34 2.9C170.34 2.9 169.94 3.8 169.94 4.5V4.60001C169.94 5.30001 170.34 6.20002 172.34 6.20002C174.34 6.20002 174.74 5.30001 174.74 4.60001V4.5Z" fill="white"/>
<path d="M180.94 7.70011C177.54 7.70011 176.94 5.80011 176.94 4.70011V4.50009C176.94 3.40009 177.44 1.6001 180.94 1.6001H181.24C184.64 1.6001 185.24 3.20009 185.24 3.90009V4.00009H183.24C183.24 3.80009 182.94 3.00009 181.04 3.00009C179.24 3.00009 178.84 3.80009 178.84 4.50009V4.6001C178.84 5.3001 179.34 6.20011 181.04 6.20011C182.94 6.20011 183.14 5.3001 183.24 5.1001H185.24V5.20011C185.24 6.00011 184.64 7.6001 181.24 7.6001H180.94V7.70011Z" fill="white"/>
<path d="M187.64 4.8002V7.60019H185.74V1.7002H187.64V4.2002L190.64 1.7002H193.04L189.64 4.40018L193.24 7.60019H190.84L187.64 4.8002Z" fill="white"/>
<path d="M197.04 1.5C200.74 1.5 201.24 3.4 201.24 4.4V4.60001C201.24 5.60001 200.84 7.60001 197.04 7.60001H196.74C192.94 7.60001 192.54 5.70001 192.54 4.60001V4.4C192.54 3.3 192.94 1.5 196.74 1.5H197.04ZM199.24 4.5C199.24 3.8 198.84 2.9 196.84 2.9C194.84 2.9 194.44 3.8 194.44 4.5V4.60001C194.44 5.30001 194.84 6.20002 196.84 6.20002C198.84 6.20002 199.24 5.30001 199.24 4.60001V4.5Z" fill="white"/>
<path d="M201.74 1.7002H206.84C208.54 1.7002 209.04 2.40019 209.04 3.10019V3.2002C209.04 4.0002 208.34 4.30018 208.14 4.40018C208.54 4.50018 209.44 4.80018 209.44 5.90018V6.00018C209.44 6.90018 208.94 7.7002 206.94 7.7002H201.74V1.7002ZM203.54 2.90018V3.90018H206.44C206.94 3.90018 207.04 3.70018 207.04 3.40018C207.04 3.20018 206.94 2.90018 206.44 2.90018H203.54ZM203.54 5.10019V6.3002H206.64C207.24 6.3002 207.34 6.0002 207.34 5.7002C207.34 5.4002 207.24 5.10019 206.64 5.10019H203.54Z" fill="white"/>
<path d="M213.54 7.70011C210.14 7.70011 209.54 5.80011 209.54 4.70011V4.50009C209.54 3.40009 210.04 1.6001 213.54 1.6001H213.84C217.24 1.6001 217.84 3.20009 217.84 3.90009V4.00009H215.84C215.84 3.80009 215.54 3.00009 213.64 3.00009C211.84 3.00009 211.44 3.80009 211.44 4.50009V4.6001C211.44 5.3001 211.94 6.20011 213.64 6.20011C215.54 6.20011 215.74 5.3001 215.84 5.1001H217.84V5.20011C217.84 6.00011 217.24 7.6001 213.84 7.6001H213.54V7.70011Z" fill="white"/>
<path d="M220.24 4.8002V7.60019H218.34V1.7002H220.24V4.2002L223.24 1.7002H225.64L222.24 4.40018L225.84 7.60019H223.44L220.24 4.8002Z" fill="white"/>
<path d="M231.84 3.7002L227.84 7.60019H225.94V1.7002H227.84V5.60019L231.84 1.7002H233.74V7.60019H231.84V3.7002Z" fill="white"/>
<path d="M240.34 3.70002L236.34 7.60001H234.44V1.70002H236.34V5.60001L240.34 1.70002H242.24V7.60001H240.34V3.70002ZM238.24 1.30002C236.84 1.30002 236.54 0.4 236.54 0H237.94C237.94 0.1 238.04 0.399994 238.44 0.399994C238.84 0.399994 238.94 0.1 238.94 0H240.24C240.24 0.4 239.84 1.30002 238.54 1.30002H238.24Z" fill="white"/>
<path d="M160.44 13.6002H157.84V12.2002H164.84V13.6002H162.24V18.1002H160.34V13.6002H160.44Z" fill="white"/>
<path d="M171.94 12.2002V13.6002H167.54V14.5002H171.84V15.9002H167.54V16.9002H172.04V18.3002H165.74V12.4002H171.94V12.2002Z" fill="white"/>
<path d="M172.24 18.1002L175.24 15.1002L172.34 12.2002H174.84L176.54 13.9002L178.24 12.2002H180.54L177.64 15.1002L180.54 18.1002H178.24L176.44 16.3002L174.64 18.1002H172.24Z" fill="white"/>
<path d="M180.94 12.2002H182.84V14.4002H186.84V12.2002H188.74V18.1002H186.84V15.8002H182.84V18.1002H180.94V12.2002Z" fill="white"/>
<path d="M194.04 12C197.74 12 198.24 13.9 198.24 14.9V15.1C198.24 16.1 197.84 18.1 194.04 18.1H193.74C189.94 18.1 189.54 16.2 189.54 15.1V14.9C189.54 13.8 189.94 12 193.74 12H194.04ZM196.24 15C196.24 14.3 195.84 13.4 193.84 13.4C191.84 13.4 191.44 14.3 191.44 15V15.1C191.44 15.8 191.84 16.7 193.84 16.7C195.84 16.7 196.24 15.8 196.24 15.1V15Z" fill="white"/>
<path d="M203.84 13.5001H201.04C201.04 16.4001 200.84 16.9001 200.54 17.4001C200.24 17.9001 199.84 18.1001 198.84 18.1001H198.34V16.6001H198.44C198.74 16.6001 198.94 16.6001 199.04 16.4001C199.24 16.1001 199.34 15.3001 199.34 12.1001H205.74V18.0001H203.84V13.5001Z" fill="white"/>
<path d="M210.94 12C214.64 12 215.14 13.9 215.14 14.9V15.1C215.14 16.1 214.74 18.1 210.94 18.1H210.64C206.84 18.1 206.44 16.2 206.44 15.1V14.9C206.44 13.8 206.84 12 210.64 12H210.94ZM213.14 15C213.14 14.3 212.74 13.4 210.74 13.4C208.74 13.4 208.34 14.3 208.34 15V15.1C208.34 15.8 208.74 16.7 210.74 16.7C212.74 16.7 213.14 15.8 213.14 15.1V15Z" fill="white"/>
<path d="M215.84 12.2002H221.84V13.6002H217.74V18.1002H215.84V12.2002Z" fill="white"/>
<path d="M228.44 14.2002L224.44 18.1002H222.54V12.2002H224.44V16.1002L228.44 12.2002H230.34V18.1002H228.44V14.2002Z" fill="white"/>
<path d="M235.84 16.1002C235.34 16.2002 234.84 16.3002 234.04 16.3002C232.04 16.3002 230.94 15.8002 230.94 14.2002V12.2002H232.84V13.7002C232.84 14.6002 233.44 14.8002 234.54 14.8002C234.94 14.8002 235.44 14.8002 235.94 14.7002V12.2002H237.84V18.1002H235.94V16.1002H235.84Z" fill="white"/>
<path d="M244.94 12.2002V13.6002H240.54V14.5002H244.84V15.9002H240.54V16.9002H245.04V18.3002H238.74V12.4002H244.94V12.2002Z" fill="white"/>
<path d="M249.64 18.2001C246.24 18.2001 245.64 16.3001 245.64 15.2001V15.0001C245.64 13.9001 246.14 12.1001 249.64 12.1001H249.94C253.34 12.1001 253.94 13.7001 253.94 14.4001V14.5001H251.94C251.94 14.3001 251.64 13.5001 249.74 13.5001C247.94 13.5001 247.54 14.3001 247.54 15.0001V15.1001C247.54 15.8001 248.04 16.7001 249.74 16.7001C251.64 16.7001 251.84 15.8001 251.94 15.6001H253.94V15.7001C253.94 16.5001 253.34 18.1001 249.94 18.1001H249.64V18.2001Z" fill="white"/>
<path d="M256.54 15.3002V18.1002H254.64V12.2002H256.54V14.7002L259.54 12.2002H261.94L258.54 14.9002L262.14 18.1002H259.74L256.54 15.3002Z" fill="white"/>
<path d="M268.24 14.2002L264.24 18.1002H262.34V12.2002H264.24V16.1002L268.24 12.2002H270.14V18.1002H268.24V14.2002Z" fill="white"/>
<path d="M276.94 14.2L272.94 18.1H271.04V12.2H272.94V16.1L276.94 12.2H278.84V18.1H276.94V14.2ZM274.94 11.8C273.54 11.8 273.24 10.9 273.24 10.5H274.64C274.64 10.6 274.74 10.9 275.14 10.9C275.54 10.9 275.64 10.6 275.64 10.5H276.94C276.94 10.9 276.54 11.8 275.24 11.8H274.94Z" fill="white"/>
<path d="M163.94 24.7002L159.94 28.6002H158.04V22.7002H159.94V26.6002L163.94 22.7002H165.84V28.6002H163.94V24.7002Z" fill="white"/>
<path d="M166.74 22.7002H168.64V24.9002H172.64V22.7002H174.54V28.6002H172.64V26.3002H168.64V28.6002H166.74V22.7002Z" fill="white"/>
<path d="M179.24 28.7001C175.84 28.7001 175.24 26.8001 175.24 25.7001V25.5001C175.24 24.4001 175.74 22.6001 179.24 22.6001H179.54C182.94 22.6001 183.54 24.2001 183.54 24.9001V25.0001H181.54C181.54 24.8001 181.24 24.0001 179.34 24.0001C177.54 24.0001 177.14 24.8001 177.14 25.5001V25.6001C177.14 26.3001 177.64 27.2001 179.34 27.2001C181.24 27.2001 181.44 26.3001 181.54 26.1001H183.54V26.2001C183.54 27.0001 182.94 28.6001 179.54 28.6001H179.24V28.7001Z" fill="white"/>
<path d="M186.44 24.1002H183.84V22.7002H190.84V24.1002H188.24V28.6002H186.34V24.1002H186.44Z" fill="white"/>
<path d="M197.54 24.7002L193.54 28.6002H191.64V22.7002H193.54V26.6002L197.54 22.7002H199.44V28.6002H197.54V24.7002Z" fill="white"/>
<path d="M202.74 24.1002H200.14V22.7002H207.14V24.1002H204.54V28.6002H202.74V24.1002Z" fill="white"/>
<path d="M212.04 27.2002C211.44 28.2002 211.24 28.6002 210.04 28.6002H208.84V27.2002H209.84C210.04 27.2002 210.04 27.1002 210.04 27.1002C210.04 27.0002 209.94 26.9002 209.94 26.8002L207.14 22.7002H209.34L211.14 25.6002L212.84 22.7002H214.74L212.04 27.2002Z" fill="white"/>
<path d="M217.54 24.1002H214.94V22.7002H221.94V24.1002H219.34V28.6002H217.44V24.1002H217.54Z" fill="white"/>
</svg>
